/* XPM */
static char * Bitmap_xpm[] = {
"16 16 181 2",
"  	c None",
". 	c #A7DEFC",
"+ 	c #A6DDFA",
"@ 	c #A5DBF8",
"# 	c #A3D9F5",
"$ 	c #A2D6F3",
"% 	c #A0D4F0",
"& 	c #9ED1ED",
"* 	c #9DCEE9",
"= 	c #9BCBE6",
"- 	c #99C8E2",
"; 	c #97C5DE",
"> 	c #95C1DA",
", 	c #93BED5",
"' 	c #91BAD1",
") 	c #8EB6CC",
"! 	c #8BB1C7",
"~ 	c #9FD1ED",
"{ 	c #97C4DE",
"] 	c #90BAD0",
"^ 	c #89ACC1",
"/ 	c #A4DBF8",
"( 	c #A3D8F5",
"_ 	c #A2D7F3",
": 	c #A1D6F2",
"< 	c #9FD3EE",
"[ 	c #9ECFEB",
"} 	c #9BCCE6",
"| 	c #98C6DF",
"1 	c #94C1D9",
"2 	c #93BFD7",
"3 	c #96C2DA",
"4 	c #94BED5",
"5 	c #8DB4C9",
"6 	c #89ADC1",
"7 	c #87A9BC",
"8 	c #9FD1EC",
"9 	c #94BED4",
"0 	c #92BAD0",
"a 	c #91B8CD",
"b 	c #8FB5CA",
"c 	c #99C4DC",
"d 	c #96C3DC",
"e 	c #8CB2C6",
"f 	c #6E8592",
"g 	c #6A818D",
"h 	c #80A0B2",
"i 	c #88ABBF",
"j 	c #84A4B7",
"k 	c #A3D9F6",
"l 	c #90BAD1",
"m 	c #141515",
"n 	c #0B0B0B",
"o 	c #080606",
"p 	c #060504",
"q 	c #0D0E0E",
"r 	c #2F383D",
"s 	c #88AEC4",
"t 	c #7E9DAE",
"u 	c #000000",
"v 	c #546975",
"w 	c #8BADC1",
"x 	c #81A0B1",
"y 	c #060606",
"z 	c #151D21",
"A 	c #1A2429",
"B 	c #010202",
"C 	c #3E4F59",
"D 	c #88AABE",
"E 	c #2E363A",
"F 	c #242A2E",
"G 	c #5B717E",
"H 	c #86A6B8",
"I 	c #7F9BAB",
"J 	c #A0D3EF",
"K 	c #8CB4CA",
"L 	c #090909",
"M 	c #5F7B89",
"N 	c #94BACF",
"O 	c #23292C",
"P 	c #2B383F",
"Q 	c #809EAE",
"R 	c #202223",
"S 	c #181A1B",
"T 	c #5C717D",
"U 	c #84A2B3",
"V 	c #7C96A5",
"W 	c #9ED0EB",
"X 	c #8BB1C6",
"Y 	c #090A0A",
"Z 	c #171A1B",
"` 	c #1E2123",
" .	c #030303",
"..	c #14181A",
"+.	c #637D8C",
"@.	c #7995A4",
"#.	c #020101",
"$.	c #4D5E68",
"%.	c #839EAE",
"&.	c #79919F",
"*.	c #9CCDE7",
"=.	c #89AFC3",
"-.	c #06090B",
";.	c #05080A",
">.	c #111314",
",.	c #607784",
"'.	c #7A95A5",
").	c #050505",
"!.	c #4D5D67",
"~.	c #8099A8",
"{.	c #778C99",
"].	c #9AC9E3",
"^.	c #87ACC0",
"/.	c #566E7B",
"(.	c #88ABC0",
"_.	c #2F373B",
":.	c #161C20",
"<.	c #708794",
"[.	c #070707",
"}.	c #4B5A63",
"|.	c #7D94A1",
"1.	c #748793",
"2.	c #86A8BC",
"3.	c #475258",
"4.	c #121314",
"5.	c #151B1E",
"6.	c #697D89",
"7.	c #080707",
"8.	c #49565E",
"9.	c #7B8F9B",
"0.	c #72828D",
"a.	c #83A4B8",
"b.	c #040506",
"c.	c #41515A",
"d.	c #6F8490",
"e.	c #030202",
"f.	c #465259",
"g.	c #788A94",
"h.	c #6F7D86",
"i.	c #91BBD2",
"j.	c #8AB0C5",
"k.	c #556D7A",
"l.	c #4A5F6A",
"m.	c #4A5E69",
"n.	c #495B66",
"o.	c #4A5B65",
"p.	c #596D78",
"q.	c #77909F",
"r.	c #768D9B",
"s.	c #47535B",
"t.	c #3E484E",
"u.	c #5A676F",
"v.	c #72818A",
"w.	c #6D7980",
"x.	c #8EB5CB",
"y.	c #8CB2C7",
"z.	c #8EB4C9",
"A.	c #8CB0C4",
"B.	c #89ABBE",
"C.	c #87A6B8",
"D.	c #84A1B2",
"E.	c #819CAC",
"F.	c #7B93A1",
"G.	c #788D9A",
"H.	c #798D99",
"I.	c #778893",
"J.	c #717F89",
"K.	c #6D7880",
"L.	c #6A747A",
"M.	c #8BB2C7",
"N.	c #7A919F",
"O.	c #72838D",
"P.	c #707E87",
"Q.	c #6B747A",
"R.	c #686F74",
"S.	c #87A8BC",
"T.	c #84A4B6",
"U.	c #819FB1",
"V.	c #72828C",
"W.	c #6F7E86",
"X.	c #666A6E",
". + @ # $ % & * = - ; > , ' ) ! ",
"+ @ # $ % ~ * = - { > , ] ) ! ^ ",
"/ ( _ ( : < [ } | 1 2 3 4 5 6 7 ",
"# _ 8 9 0 a b b c d e f g h i j ",
"$ k l m n o p q r s t u u v w x ",
"% $ ) y u z A B u C D E F G H I ",
"~ J K L u M N O u P Q R S T U V ",
"* W X Y u Z `  ...+.@.#.u $.%.&.",
"= *.=.Y u -.;.u >.,.'.).u !.~.{.",
"- ].^.L u /.(._.u :.<.[.u }.|.1.",
"; | 2.L u _.3.4.u 5.6.7.u 8.9.0.",
"> 3 a.).u u u u b.c.d.e.u f.g.h.",
", i.j.k.l.m.n.o.p.q.r.s.t.u.v.w.",
"] x.y.z.A.B.C.D.E.F.G.H.I.J.K.L.",
"x.M.6 7 j x I V N.{.1.O.P.w.Q.R.",
"X 6 S.T.U.I V &.{.1.V.W.w.L.R.X."};
