/* XPM */
static char * Box_xpm[] = {
"16 16 162 2",
"  	c None",
". 	c #0C7FE0",
"+ 	c #127FDE",
"@ 	c #187EDC",
"# 	c #1D7EDA",
"$ 	c #217DD8",
"% 	c #267CD5",
"& 	c #297BD2",
"* 	c #2D7BCF",
"= 	c #317ACD",
"- 	c #3479C9",
"; 	c #3878C6",
"> 	c #3B77C2",
", 	c #3E76BF",
"' 	c #4175BB",
") 	c #4474B7",
"! 	c #4673B2",
"~ 	c #137FDE",
"{ 	c #217DD7",
"] 	c #2A7BD2",
"^ 	c #2D7BD0",
"/ 	c #317ACC",
"( 	c #3579C9",
"_ 	c #4972AD",
": 	c #227DD8",
"< 	c #297BD3",
"[ 	c #2C7CD4",
"} 	c #317BD1",
"| 	c #347ACE",
"1 	c #3779CA",
"2 	c #3A78C6",
"3 	c #4175BA",
"4 	c #4673B3",
"5 	c #4972AE",
"6 	c #4C71AA",
"7 	c #327BCB",
"8 	c #3C76B9",
"9 	c #3D75B6",
"0 	c #4074B3",
"a 	c #4374B1",
"b 	c #4675B2",
"c 	c #467AC0",
"d 	c #4475B9",
"e 	c #4672B2",
"f 	c #4C70AA",
"g 	c #4E6FA5",
"h 	c #2E7ED7",
"i 	c #34669F",
"j 	c #0F0C0B",
"k 	c #0B0B0B",
"l 	c #090806",
"m 	c #0F0F11",
"n 	c #233145",
"o 	c #456FAD",
"p 	c #4A73B1",
"q 	c #4E70A5",
"r 	c #506EA0",
"s 	c #327ED5",
"t 	c #33629A",
"u 	c #020000",
"v 	c #000000",
"w 	c #071221",
"x 	c #07111E",
"y 	c #2A4163",
"z 	c #4F77B3",
"A 	c #506FA0",
"B 	c #526D9B",
"C 	c #2E7BCF",
"D 	c #367DD1",
"E 	c #366298",
"F 	c #030000",
"G 	c #010101",
"H 	c #365B8F",
"I 	c #4A71A6",
"J 	c #101215",
"K 	c #20304A",
"L 	c #5175AD",
"M 	c #506FA1",
"N 	c #526E9C",
"O 	c #556C96",
"P 	c #397CCE",
"Q 	c #386196",
"R 	c #030100",
"S 	c #16191E",
"T 	c #16191D",
"U 	c #030202",
"V 	c #121821",
"W 	c #3C5781",
"X 	c #5271A5",
"Y 	c #536E9C",
"Z 	c #556C97",
"` 	c #566B92",
" .	c #3D7BCA",
"..	c #3A6193",
"+.	c #000001",
"@.	c #02050A",
"#.	c #000206",
"$.	c #13161B",
"%.	c #41587E",
"&.	c #5571A2",
"*.	c #546C97",
"=.	c #586A8D",
"-.	c #407AC6",
";.	c #3C6090",
">.	c #000101",
",.	c #34527E",
"'.	c #4A6A9C",
").	c #161B21",
"!.	c #171E2B",
"~.	c #576F9C",
"{.	c #576C93",
"].	c #586B8D",
"^.	c #5A6988",
"/.	c #4379C2",
"(.	c #3E608D",
"_.	c #010100",
":.	c #283240",
"<.	c #313A49",
"[.	c #090A0B",
"}.	c #151B27",
"|.	c #596B8E",
"1.	c #5A6A88",
"2.	c #5B6883",
"3.	c #3B77C3",
"4.	c #4678BE",
"5.	c #3F5E89",
"6.	c #010000",
"7.	c #040609",
"8.	c #334059",
"9.	c #5A6E91",
"0.	c #5B6983",
"a.	c #5D677E",
"b.	c #4774B4",
"c.	c #456AA2",
"d.	c #2B4062",
"e.	c #2A3C5B",
"f.	c #2B3D59",
"g.	c #2C3C57",
"h.	c #303E58",
"i.	c #3E4F6C",
"j.	c #56688A",
"k.	c #5A6A89",
"l.	c #5D687E",
"m.	c #5E6779",
"n.	c #4773B3",
"o.	c #4C72AB",
"p.	c #5174AC",
"q.	c #5373A7",
"r.	c #5572A2",
"s.	c #57719D",
"t.	c #5A7098",
"u.	c #5B6E92",
"v.	c #5B6A89",
"w.	c #5E6679",
"x.	c #5F6674",
"y.	c #4474B6",
"z.	c #61656F",
"A.	c #4773B2",
"B.	c #4C70A9",
"C.	c #536D9B",
"D.	c #606674",
"E.	c #62646A",
". + @ # $ % & * = - ; > , ' ) ! ",
"~ @ # { % ] ^ / ( ; > , ' ) ! _ ",
"@ # : % < [ } | 1 2 , 3 ) 4 5 6 ",
"# : % < 7 8 9 0 a b c d e 5 f g ",
"$ % ] h i j k l l m n o p 6 q r ",
"% ] ^ s t u v w x v v y z q A B ",
"] C / D E F G H I J v K L M N O ",
"* / ( P Q R G S T U V W X Y Z ` ",
"/ ( ;  ...R +.@.#.v $.%.&.*.` =.",
"- ; > -.;.u >.,.'.).v !.~.{.].^.",
"; > , /.(.u _.:.<.[.v }.` |.1.2.",
"3., ' 4.5.6.v v v v 7.8.9.1.0.a.",
", ' ) b.c.d.e.f.g.h.i.j.k.2.l.m.",
"' ) n.5 o.p.q.r.s.t.u.v.2.a.w.x.",
"y.! 5 6 q M Y Z ` ].^.2.l.m.x.z.",
"A.5 B.g r C.O ` =.^.2.a.m.D.z.E."};
