/* XPM */
static char * Button_xpm[] = {
"16 16 193 2",
"  	c None",
". 	c #900CFC",
"+ 	c #8F12FA",
"@ 	c #8E18F8",
"# 	c #8D1DF5",
"$ 	c #8C21F3",
"% 	c #8B25F0",
"& 	c #8A2AED",
"* 	c #892DE9",
"= 	c #8831E6",
"- 	c #8634E2",
"; 	c #8538DE",
"> 	c #833BDA",
", 	c #823ED5",
"' 	c #8041D1",
") 	c #7E44CC",
"! 	c #7D46C6",
"~ 	c #8F13FA",
"{ 	c #8C22F3",
"] 	c #8B26F0",
"^ 	c #8A29ED",
"/ 	c #8041D0",
"( 	c #7F44CB",
"_ 	c #7D46C7",
": 	c #7B49C1",
"< 	c #8F1BFA",
"[ 	c #8E20F9",
"} 	c #8D25F5",
"| 	c #8C29F2",
"1 	c #8B2DEF",
"2 	c #8831E8",
"3 	c #8634E1",
"4 	c #8538DD",
"5 	c #7F44CC",
"6 	c #7D47C6",
"7 	c #7B49C2",
"8 	c #7A4CBC",
"9 	c #8D1EF5",
"0 	c #872EDC",
"a 	c #8431D5",
"b 	c #8334D3",
"c 	c #8238D0",
"d 	c #823BCF",
"e 	c #893BDF",
"f 	c #893AE4",
"g 	c #833BD9",
"h 	c #784EB7",
"i 	c #8D28EE",
"j 	c #251B30",
"k 	c #0B0B0B",
"l 	c #090A07",
"m 	c #060903",
"n 	c #0B0C0B",
"o 	c #23182E",
"p 	c #6B33B0",
"q 	c #8640DC",
"r 	c #8140D2",
"s 	c #7F43CE",
"t 	c #7D47C8",
"u 	c #7A4BBE",
"v 	c #794EB9",
"w 	c #7650B1",
"x 	c #8B2CEB",
"y 	c #1A1023",
"z 	c #000000",
"A 	c #0D0319",
"B 	c #19072F",
"C 	c #040109",
"D 	c #1F0F33",
"E 	c #8342D4",
"F 	c #804BC7",
"G 	c #7E4DC0",
"H 	c #7C4BC0",
"I 	c #7B4EBB",
"J 	c #7A54B2",
"K 	c #7755AD",
"L 	c #7553AB",
"M 	c #8A30E8",
"N 	c #1C1325",
"O 	c #3F1C68",
"P 	c #8C43E1",
"Q 	c #37244E",
"R 	c #130820",
"S 	c #7843BC",
"T 	c #2C2536",
"U 	c #18151B",
"V 	c #4B3072",
"W 	c #674993",
"X 	c #18161B",
"Y 	c #19161E",
"Z 	c #644990",
"` 	c #8933E4",
" .	c #110E14",
"..	c #201A27",
"+.	c #070707",
"@.	c #0C0910",
"#.	c #4A2878",
"$.	c #7C4AC1",
"%.	c #120F16",
"&.	c #372356",
"*.	c #5F4586",
"=.	c #59437D",
"-.	c #8836E1",
";.	c #1B1325",
">.	c #050109",
",.	c #05000C",
"'.	c #000001",
").	c #0B0A0C",
"!.	c #472C6C",
"~.	c #7E4EC1",
"{.	c #15121A",
"].	c #392656",
"^.	c #5F4784",
"/.	c #010002",
"(.	c #58467A",
"_.	c #873ADE",
":.	c #1B1424",
"<.	c #3A1B5F",
"[.	c #7F41CD",
"}.	c #402A5D",
"|.	c #030107",
"1.	c #69449E",
"2.	c #18141E",
"3.	c #3A2857",
"4.	c #634D85",
"5.	c #574775",
"6.	c #863DDA",
"7.	c #1B1423",
"8.	c #21182D",
"9.	c #463260",
"0.	c #1C1722",
"a.	c #040208",
"b.	c #614191",
"c.	c #16131B",
"d.	c #292236",
"e.	c #372F43",
"f.	c #010102",
"g.	c #564870",
"h.	c #843FD5",
"i.	c #18121F",
"j.	c #010003",
"k.	c #2B1B43",
"l.	c #754FAF",
"m.	c #251A36",
"n.	c #0F0D12",
"o.	c #020302",
"p.	c #54496A",
"q.	c #833FD6",
"r.	c #562C8D",
"s.	c #44236F",
"t.	c #45266F",
"u.	c #44276C",
"v.	c #44296A",
"w.	c #4F327A",
"x.	c #6B48A2",
"y.	c #7955B2",
"z.	c #684C96",
"A.	c #392B51",
"B.	c #362A4B",
"C.	c #554571",
"D.	c #413755",
"E.	c #393148",
"F.	c #5C5270",
"G.	c #8346D2",
"H.	c #8249CF",
"I.	c #804CC9",
"J.	c #7E4EC4",
"K.	c #7C51BE",
"L.	c #7A53B8",
"M.	c #7754AE",
"N.	c #7254A5",
"O.	c #7358A2",
"P.	c #745B9F",
"Q.	c #715C97",
"R.	c #6F5E91",
"S.	c #6F608C",
"T.	c #6D6285",
"U.	c #69607B",
"V.	c #7C49C2",
"W.	c #7453AB",
"X.	c #7355A5",
"Y.	c #71569F",
"Z.	c #6F5899",
"`.	c #6E5A93",
" +	c #6C5C8D",
".+	c #6B5D87",
"++	c #695E80",
"@+	c #68607A",
"#+	c #666173",
"$+	c #6C5B8C",
"%+	c #6A5D86",
"&+	c #666174",
"*+	c #65626E",
". + @ # $ % & * = - ; > , ' ) ! ",
"~ @ # { ] ^ * = - ; > , / ( _ : ",
"@ < [ } | 1 2 3 4 > , / 5 6 7 8 ",
"9 0 a b c d e f g , / 5 _ : 8 h ",
"i j k l m n o p q r s t 7 u v w ",
"x y z A B C z D E F G H I J K L ",
"M N z O P Q z R S T U V W X Y Z ",
"` N z  ...+.@.#.$.%.z &.*.z z =.",
"-.;.z >.,.'.).!.~.{.z ].^.z /.(.",
"_.:.z <.[.}.z |.1.2.z 3.4.z /.5.",
"6.7.z 8.9.0.z a.b.c.z d.e.z f.g.",
"h.i.z z z z j.k.l.m.z z n.o.z p.",
"q.r.s.t.u.v.w.x.y.z.A.B.C.D.E.F.",
"' G.H.I.J.K.L.M.N.O.P.Q.R.S.T.U.",
"( _ V.8 h w W.X.Y.Z.`. +.+++@+#+",
"! : 8 h w W.X.Y.Z.`.$+%+++@+&+*+"};
