/* XPM */
static char * Calendar_xpm[] = {
"16 16 186 2",
"  	c None",
". 	c #CBB4FB",
"+ 	c #C9B2F9",
"@ 	c #C8B1F6",
"# 	c #C6B0F4",
"$ 	c #C4AEF1",
"% 	c #C2ACEE",
"& 	c #BFAAEB",
"* 	c #BDA8E8",
"= 	c #BAA6E4",
"- 	c #B7A4E1",
"; 	c #B5A1DD",
"> 	c #B29FD8",
", 	c #AF9CD4",
"' 	c #AB9ACF",
") 	c #A897CA",
"! 	c #A494C5",
"~ 	c #C6AFF4",
"{ 	c #B7A4E0",
"] 	c #B19FD8",
"^ 	c #AE9CD4",
"/ 	c #A091C0",
"( 	c #C4AEF2",
"_ 	c #C6AFF3",
": 	c #BBA7E5",
"< 	c #A797CA",
"[ 	c #9D8EBB",
"} 	c #CAB4F7",
"| 	c #AF9DD2",
"1 	c #9C8DBA",
"2 	c #A696C7",
"3 	c #BDA9E6",
"4 	c #B8A4E1",
"5 	c #B19FD7",
"6 	c #AE9CD3",
"7 	c #A191C0",
"8 	c #998BB6",
"9 	c #C4AFEE",
"0 	c #595367",
"a 	c #0E0E0E",
"b 	c #000000",
"c 	c #090908",
"d 	c #413C4C",
"e 	c #A896CC",
"f 	c #B2A0D8",
"g 	c #AB99CF",
"h 	c #A898CC",
"i 	c #A696C9",
"j 	c #A393C4",
"k 	c #9D8FBC",
"l 	c #988BB5",
"m 	c #9488B0",
"n 	c #CCB5FA",
"o 	c #675E77",
"p 	c #1C1823",
"q 	c #020204",
"r 	c #3F394C",
"s 	c #B2A0D7",
"t 	c #AF9ED3",
"u 	c #A698C6",
"v 	c #978BB2",
"w 	c #9488AD",
"x 	c #9A8EB5",
"y 	c #9B8EB7",
"z 	c #9085AA",
"A 	c #B9A6E0",
"B 	c #171719",
"C 	c #292432",
"D 	c #A895CD",
"E 	c #635977",
"F 	c #050406",
"G 	c #9889B7",
"H 	c #7A708C",
"I 	c #242327",
"J 	c #232126",
"K 	c #665F76",
"L 	c #9186AA",
"M 	c #A090C0",
"N 	c #030402",
"O 	c #4E4660",
"P 	c #BFABE9",
"Q 	c #A493C6",
"R 	c #625878",
"S 	c #655A7B",
"T 	c #887CA2",
"U 	c #1F1D24",
"V 	c #09080B",
"W 	c #3A3545",
"X 	c #2D2A34",
"Y 	c #0C0B0E",
"Z 	c #807795",
"` 	c #998AB9",
" .	c #010200",
"..	c #544B67",
"+.	c #B7A4DE",
"@.	c #AF9ED4",
"#.	c #B2A2D5",
"$.	c #B1A0D3",
"%.	c #A696C6",
"&.	c #7D7391",
"*.	c #3F3C46",
"=.	c #36333B",
"-.	c #222025",
";.	c #050405",
">.	c #6F6880",
",.	c #A695C9",
"'.	c #0A090B",
").	c #413A4F",
"!.	c #C3AFEC",
"~.	c #877D9D",
"{.	c #28262C",
"].	c #36323E",
"^.	c #837898",
"/.	c #201F22",
"(.	c #1B1821",
"_.	c #312E38",
":.	c #6C657B",
"<.	c #BBA7E4",
"[.	c #3B3547",
"}.	c #0C0B0D",
"|.	c #585264",
"1.	c #1A171F",
"2.	c #565064",
"3.	c #605A6E",
"4.	c #504C58",
"5.	c #050506",
"6.	c #696376",
"7.	c #B6A3DE",
"8.	c #9E8DC0",
"9.	c #231F2A",
"0.	c #100E13",
"a.	c #665D7A",
"b.	c #817698",
"c.	c #0A090C",
"d.	c #060605",
"e.	c #141315",
"f.	c #625D6D",
"g.	c #B19FD6",
"h.	c #9E8EBF",
"i.	c #635978",
"j.	c #494258",
"k.	c #504961",
"l.	c #766B8D",
"m.	c #9689B1",
"n.	c #978AB1",
"o.	c #6F6682",
"p.	c #403B4B",
"q.	c #645E72",
"r.	c #4B4755",
"s.	c #3F3C47",
"t.	c #64606E",
"u.	c #A797C9",
"v.	c #A898C9",
"w.	c #A193C1",
"x.	c #9D90BB",
"y.	c #998CB5",
"z.	c #9286AB",
"A.	c #8D82A4",
"B.	c #8D83A4",
"C.	c #89809E",
"D.	c #847C97",
"E.	c #807991",
"F.	c #7D778C",
"G.	c #797485",
"H.	c #716D7A",
"I.	c #998CB6",
"J.	c #9589B0",
"K.	c #9185AA",
"L.	c #887F9E",
"M.	c #847C98",
"N.	c #817993",
"O.	c #7D768C",
"P.	c #797286",
"Q.	c #757080",
"R.	c #6D6A73",
"S.	c #9C8EBB",
"T.	c #9588B0",
"U.	c #897E9E",
"V.	c #847B98",
"W.	c #807892",
"X.	c #7C758C",
"Y.	c #787286",
"Z.	c #746F80",
"`.	c #706D79",
" +	c #6C6A73",
".+	c #69676E",
". + @ # $ % & * = - ; > , ' ) ! ",
"+ @ ~ $ % & * = { ; ] ^ ' ) ! / ",
"@ ~ ( ~ _ % : { ; ] ^ ' < ! / [ ",
"_ ~ } | 1 2 3 4 5 6 ' ) ! 7 [ 8 ",
"_ 9 0 a b c d e f g h i j k l m ",
"n o b b p q b r s t u v w x y z ",
"A B b C D E b F G H I c c J K L ",
"M N b O P Q R S T U V W X b Y Z ",
"`  .b ..+.@.#.$.%.&.*.=.-.b ;.>.",
",.'.b ).!.~.{.].^./.b (._.b F :.",
"<.[.b }.|.-.b 1.2.b b 3.4.b 5.6.",
"7.8.9.b b b 0.a.b.c.b d.e.b b f.",
"6 g.h.i.j.k.l.m.n.o.p.d q.r.s.t.",
"g < u.v.w.x.y.z.A.B.C.D.E.F.G.H.",
") ! / [ I.J.K.A.L.M.N.O.P.Q.H.R.",
"! / S.l T.K.A.U.V.W.X.Y.Z.`. +.+"};
