/* XPM */
static char * Color_xpm[] = {
"22 22 35 1",
" 	c None",
".	c #57585A",
"+	c #555658",
"@	c #525355",
"#	c #525254",
"$	c #505052",
"%	c #4D4D4F",
"&	c #4B4B4C",
"*	c #4B4A4C",
"=	c #4B4B4D",
"-	c #48484A",
";	c #484849",
">	c #464547",
",	c #434344",
"'	c #414041",
")	c #3E3D3F",
"!	c #3E3D3E",
"~	c #3C3A3C",
"{	c #3C3B3C",
"]	c #3A3839",
"^	c #393839",
"/	c #373536",
"(	c #353234",
"_	c #343234",
":	c #323031",
"<	c #322F31",
"[	c #2F2D2E",
"}	c #2D2A2B",
"|	c #2A2729",
"1	c #2B2729",
"2	c #282526",
"3	c #252122",
"4	c #262223",
"5	c #232021",
"6	c #231F20",
"                    ..",
"                   +++",
"                  @## ",
"                 $$$$ ",
"                %%%%  ",
"               &***=  ",
"              -;;;;   ",
"             >>>>>    ",
"            ,,,,,,    ",
"          '''''''     ",
"          )!!!!!      ",
"           ~~~~{      ",
"         ]]  ^^       ",
"        ////          ",
"        (((__         ",
"        :<<           ",
"     [[ [[            ",
"    }}}}              ",
"   |1111|             ",
"   222222             ",
"  344444              ",
" 566666               "};
