/* XPM */
static char * Combobox_xpm[] = {
"16 16 190 2",
"  	c None",
". 	c #987D4F",
"+ 	c #977D50",
"@ 	c #967C50",
"# 	c #957C51",
"$ 	c #947B51",
"% 	c #927A52",
"& 	c #917A53",
"* 	c #907953",
"= 	c #8E7854",
"- 	c #8D7755",
"; 	c #8B7656",
"> 	c #897656",
", 	c #877557",
"' 	c #867458",
") 	c #847359",
"! 	c #827259",
"~ 	c #937A52",
"{ 	c #897557",
"] 	c #887557",
"^ 	c #867358",
"/ 	c #82715A",
"( 	c #80715A",
"_ 	c #937B51",
": 	c #957C52",
"< 	c #957D54",
"[ 	c #937B54",
"} 	c #8C7755",
"| 	c #897658",
"1 	c #877458",
"2 	c #827159",
"3 	c #7E705B",
"4 	c #957B51",
"5 	c #9A8259",
"6 	c #8A7657",
"7 	c #7C6C51",
"8 	c #837155",
"9 	c #927C5B",
"0 	c #8E7857",
"a 	c #82725A",
"b 	c #7F705A",
"c 	c #7C6F5C",
"d 	c #97805A",
"e 	c #4C4439",
"f 	c #0F0F0F",
"g 	c #000204",
"h 	c #090A0B",
"i 	c #363028",
"j 	c #847154",
"k 	c #837359",
"l 	c #171716",
"m 	c #0B0B0B",
"n 	c #514738",
"o 	c #87765E",
"p 	c #7F715B",
"q 	c #7C6E5C",
"r 	c #7A6D5D",
"s 	c #9A8158",
"t 	c #554C3E",
"u 	c #000000",
"v 	c #15110B",
"w 	c #010000",
"x 	c #342C21",
"y 	c #84735A",
"z 	c #0B0B0A",
"A 	c #494134",
"B 	c #847765",
"C 	c #7B6F5E",
"D 	c #7F7361",
"E 	c #786C5D",
"F 	c #8F7A58",
"G 	c #151513",
"H 	c #1F1A12",
"I 	c #806D4E",
"J 	c #4E4334",
"K 	c #050403",
"L 	c #6C604D",
"M 	c #10100E",
"N 	c #282623",
"O 	c #111111",
"P 	c #131212",
"Q 	c #4C463D",
"R 	c #7A6F61",
"S 	c #7D6B4F",
"T 	c #040506",
"U 	c #3C3324",
"V 	c #947E5D",
"W 	c #806E53",
"X 	c #4C4130",
"Y 	c #4F4433",
"Z 	c #6D604F",
"` 	c #0F0F0D",
" .	c #15120F",
"..	c #191612",
"+.	c #030303",
"@.	c #665E53",
"#.	c #78674C",
"$.	c #020305",
"%.	c #413828",
"&.	c #8E7A5B",
"*.	c #89775B",
"=.	c #8F7D64",
"-.	c #907F65",
";.	c #7B6E5B",
">.	c #0D0D0C",
",.	c #443D33",
"'.	c #6D6357",
").	c #040404",
"!.	c #49443D",
"~.	c #816E50",
"{.	c #090807",
"].	c #332B21",
"^.	c #998465",
"/.	c #706554",
"(.	c #24221F",
"_.	c #2E2A25",
":.	c #6C6152",
"<.	c #0F0F0E",
"[.	c #474037",
"}.	c #746C5F",
"|.	c #060607",
"1.	c #423E38",
"2.	c #8F7A59",
"3.	c #2E271D",
"4.	c #0A0908",
"5.	c #4B443B",
"6.	c #1F1D1B",
"7.	c #0F0D0A",
"8.	c #6A6051",
"9.	c #38342F",
"0.	c #55514B",
"a.	c #000001",
"b.	c #4E4A44",
"c.	c #8D7859",
"d.	c #7B694F",
"e.	c #1B1711",
"f.	c #0C0B08",
"g.	c #51483A",
"h.	c #766B5D",
"i.	c #090909",
"j.	c #0D0C0A",
"k.	c #070606",
"l.	c #1E1C1A",
"m.	c #65605A",
"n.	c #877457",
"o.	c #8A775B",
"p.	c #7C6B53",
"q.	c #4E4435",
"r.	c #393228",
"s.	c #40382D",
"t.	c #605546",
"u.	c #7B6F5D",
"v.	c #776C5D",
"w.	c #474139",
"x.	c #554E45",
"y.	c #554E46",
"z.	c #322F2A",
"A.	c #393632",
"B.	c #5D5853",
"C.	c #6D6963",
"D.	c #857358",
"E.	c #847259",
"F.	c #84745B",
"G.	c #86755E",
"H.	c #82735E",
"I.	c #80725E",
"J.	c #7E715F",
"K.	c #796D5D",
"L.	c #766C5E",
"M.	c #786F62",
"N.	c #756C61",
"O.	c #746D63",
"P.	c #726C63",
"Q.	c #6F6A64",
"R.	c #6D6964",
"S.	c #696562",
"T.	c #7A6E5D",
"U.	c #786D5D",
"V.	c #746B5E",
"W.	c #726A5F",
"X.	c #706960",
"Y.	c #6E6860",
"Z.	c #6D6861",
"`.	c #6B6661",
" +	c #696662",
".+	c #676562",
"++	c #80705A",
"@+	c #746B5F",
"#+	c #6C6761",
"$+	c #666463",
". + @ # $ % & * = - ; > , ' ) ! ",
"+ @ # $ ~ & * = - ; { ] ^ ) / ( ",
"@ # _ : < [ = } ; ; | 1 ) 2 ( 3 ",
"# 4 5 6 7 8 9 0 | a b 2 a ( 3 c ",
"$ d e f g h i j k l m n o p q r ",
"s t u u v w u x y z u A B C D E ",
"F G u H I J u K L M u N O P Q R ",
"S T u U V W X Y Z ` u  ...u +.@.",
"#.$.u %.&.*.=.-.;.>.u ,.'.).u !.",
"~.{.u ].^./.(._.:.<.u [.}.|.u 1.",
"2.3.u 4.5.6.u 7.8.<.u 9.0.a.u b.",
"c.d.e.u u u f.g.h.i.j.k.u u l.m.",
"n.o.p.q.r.s.t.u.v.w.x.y.z.A.B.C.",
"D.E.F.G.H.I.J.K.L.M.N.O.P.Q.R.S.",
") a ( 3 c T.U.L.V.W.X.Y.Z.`. +.+",
"2 ++3 c T.U.L.@+W.X.Y.#+`.S..+$+"};
