/* XPM */
static char * Container_xpm[] = {
"16 16 143 2",
"  	c None",
". 	c #0CA582",
"+ 	c #12A481",
"@ 	c #18A280",
"# 	c #1DA180",
"$ 	c #21A07F",
"% 	c #269E7E",
"& 	c #299C7D",
"* 	c #2D9B7D",
"= 	c #31997C",
"- 	c #34977B",
"; 	c #38957A",
"> 	c #3B9379",
", 	c #3E9178",
"' 	c #418F77",
") 	c #448C75",
"! 	c #468A74",
"~ 	c #13A381",
"{ 	c #22A07F",
"] 	c #2A9C7D",
"^ 	c #2E9B7D",
"/ 	c #31997B",
"( 	c #418F76",
"_ 	c #448D75",
": 	c #498873",
"< 	c #2E9B7C",
"[ 	c #309A7C",
"} 	c #349B7D",
"| 	c #38997D",
"1 	c #3B957A",
"2 	c #3E9177",
"3 	c #478A74",
"4 	c #498773",
"5 	c #4C8572",
"6 	c #1CA180",
"7 	c #2D9A7C",
"8 	c #319D7E",
"9 	c #3E9C81",
"0 	c #408671",
"a 	c #3F7E6B",
"b 	c #448B76",
"c 	c #45957C",
"d 	c #448D76",
"e 	c #4E8371",
"f 	c #2A9C7E",
"g 	c #2D9B7C",
"h 	c #319D7F",
"i 	c #408B75",
"j 	c #232F2B",
"k 	c #0A0607",
"l 	c #060002",
"m 	c #111312",
"n 	c #2F5347",
"o 	c #488E78",
"p 	c #50806F",
"q 	c #3E997F",
"r 	c #1E2523",
"s 	c #000000",
"t 	c #010605",
"u 	c #07130F",
"v 	c #335D4F",
"w 	c #4F8C77",
"x 	c #508070",
"y 	c #537E6E",
"z 	c #369E7F",
"A 	c #397161",
"B 	c #010000",
"C 	c #1E4539",
"D 	c #418771",
"E 	c #16231F",
"F 	c #152620",
"G 	c #508774",
"H 	c #508170",
"I 	c #547B6D",
"J 	c #35977B",
"K 	c #3B9E81",
"L 	c #2E5448",
"M 	c #316857",
"N 	c #4D977F",
"O 	c #3A6C5B",
"P 	c #28493E",
"Q 	c #325649",
"R 	c #4F7E6E",
"S 	c #537E6F",
"T 	c #557B6D",
"U 	c #56796C",
"V 	c #34977A",
"W 	c #389579",
"X 	c #3F9C80",
"Y 	c #2B4E43",
"Z 	c #000100",
"` 	c #376C5B",
" .	c #4B8D77",
"..	c #528C79",
"+.	c #598F7C",
"@.	c #588978",
"#.	c #527E6E",
"$.	c #58766B",
"%.	c #41997E",
"&.	c #2E5B4D",
"*.	c #356152",
"=.	c #5B9A85",
"-.	c #3A4D47",
";.	c #1F2524",
">.	c #2F413B",
",.	c #557D6E",
"'.	c #57796C",
").	c #5A746A",
"!.	c #439279",
"~.	c #3D7E69",
"{.	c #050908",
"].	c #18211E",
"^.	c #384B44",
"/.	c #070607",
"(.	c #1F2F29",
"_.	c #587C6E",
":.	c #58776C",
"<.	c #5B7169",
"[.	c #3B9378",
"}.	c #4A917A",
"|.	c #315C4E",
"1.	c #040907",
"2.	c #121C18",
"3.	c #48655B",
"4.	c #5A796E",
"5.	c #5D6F68",
"6.	c #4F8B77",
"7.	c #3F6C5D",
"8.	c #29433A",
"9.	c #243831",
"0.	c #30473F",
"a.	c #4B6A5F",
"b.	c #5E6D67",
"c.	c #4B8572",
"d.	c #538473",
"e.	c #568373",
"f.	c #577F70",
"g.	c #597D70",
"h.	c #606A66",
"i.	c #5F6A66",
"j.	c #616865",
"k.	c #5E6C67",
"l.	c #626664",
". + @ # $ % & * = - ; > , ' ) ! ",
"~ @ # { % ] ^ / - ; > , ( _ ! : ",
"@ # { % ] < [ } | 1 2 ( ) 3 4 5 ",
"6 { % ] 7 8 9 0 a b c d 3 : 5 e ",
"$ % f g h i j k l m n o : 5 e p ",
"% ] ^ [ q r s t u s s v w e x y ",
"] ^ = z A B s C D E s F G H y I ",
"* = J K L s s M N O P Q R S T U ",
"/ V W X Y s Z `  ...+.@.#.I U $.",
"- ; > %.&.s s *.=.-.;.>.,.'.$.).",
"; > , !.~.{.s ].^./.s (._.:.).<.",
"[., ( ) }.|.1.s s s 2.3.4.).<.5.",
", ( ) 3 : 6.7.8.9.0.a.4.).<.5.b.",
"' ) ! : c.e d.e.f.g.4.).<.5.b.h.",
") ! : 5 e x y T '.$.).<.5.b.i.j.",
"! : 5 e p #.T U $.).<.5.k.h.j.l."};
