/* XPM */
static char * Entryfield_xpm[] = {
"16 16 100 2",
"  	c None",
". 	c #E1E1E1",
"+ 	c #DFDFDF",
"@ 	c #DDDDDD",
"# 	c #DBDBDB",
"$ 	c #D8D8D8",
"% 	c #D6D6D6",
"& 	c #D3D3D3",
"* 	c #D0D0D0",
"= 	c #CDCDCD",
"- 	c #CACACA",
"; 	c #C7C7C7",
"> 	c #C3C3C3",
", 	c #C0C0C0",
"' 	c #BCBCBC",
") 	c #B7B7B7",
"! 	c #B3B3B3",
"~ 	c #B8B8B8",
"{ 	c #AFAFAF",
"] 	c #D9D9D9",
"^ 	c #D4D4D4",
"/ 	c #D2D2D2",
"( 	c #CECECE",
"_ 	c #CBCBCB",
": 	c #BDBDBD",
"< 	c #AAAAAA",
"[ 	c #B4B4B4",
"} 	c #B1B1B1",
"| 	c #AEAEAE",
"1 	c #ABABAB",
"2 	c #B2B2B2",
"3 	c #A6A6A6",
"4 	c #303030",
"5 	c #0B0B0B",
"6 	c #090909",
"7 	c #060606",
"8 	c #070707",
"9 	c #676767",
"0 	c #A1A1A1",
"a 	c #CFCFCF",
"b 	c #242424",
"c 	c #000000",
"d 	c #161616",
"e 	c #141414",
"f 	c #121212",
"g 	c #5D5D5D",
"h 	c #9C9C9C",
"i 	c #C6C6C6",
"j 	c #262626",
"k 	c #373737",
"l 	c #A5A5A5",
"m 	c #9D9D9D",
"n 	c #989898",
"o 	c #A7A7A7",
"p 	c #979797",
"q 	c #C8C8C8",
"r 	c #0C0C0C",
"s 	c #222222",
"t 	c #202020",
"u 	c #4B4B4B",
"v 	c #ACACAC",
"w 	c #929292",
"x 	c #C5C5C5",
"y 	c #252525",
"z 	c #040404",
"A 	c #080808",
"B 	c #2D2D2D",
"C 	c #939393",
"D 	c #8D8D8D",
"E 	c #C1C1C1",
"F 	c #333333",
"G 	c #8F8F8F",
"H 	c #9E9E9E",
"I 	c #888888",
"J 	c #151515",
"K 	c #404040",
"L 	c #3D3D3D",
"M 	c #3A3A3A",
"N 	c #6D6D6D",
"O 	c #8E8E8E",
"P 	c #838383",
"Q 	c #BFBFBF",
"R 	c #B9B9B9",
"S 	c #454545",
"T 	c #969696",
"U 	c #898989",
"V 	c #7E7E7E",
"W 	c #B0B0B0",
"X 	c #747474",
"Y 	c #5A5A5A",
"Z 	c #575757",
"` 	c #545454",
" .	c #4F4F4F",
"..	c #696969",
"+.	c #8B8B8B",
"@.	c #797979",
"#.	c #A8A8A8",
"$.	c #A2A2A2",
"%.	c #6F6F6F",
"&.	c #6B6B6B",
". + @ # $ % & * = - ; > , ' ) ! ",
"+ @ # $ % & * = - ; > , ' ~ ! { ",
"@ # ] % & ^ / ( _ ; > : ) ! { < ",
"# $ % & * : ) [ } | 1 2 [ { < 3 ",
"] % & / = 4 5 6 7 8 8 9 ~ 1 3 0 ",
"% & * a - b c 8 d e f g 2 3 0 h ",
"& * = _ i j c k l m n m o 0 h p ",
"* = - q > j c r s t u v 0 h p w ",
"= - ; x , y c z A 7 B 0 m n C D ",
"- ; > E ' y c F n G G H p C D I ",
"; > , : ~ b c J K L M N n O I P ",
"> Q ' R ! t c c c c c S T U P V ",
", ' ~ [ W X Y Y Z `  ...+.P V @.",
"' ~ ! { < 1 #.$.H n C +.P V @.X ",
") ! | < l 0 h n w O I P V @.X %.",
"! | < l 0 h p w D I P V @.X %.&."};
