/* XPM */
static char * HTML_xpm[] = {
"16 16 161 2",
"  	c None",
". 	c #C4FDB8",
"+ 	c #C2FAB7",
"@ 	c #C1F8B5",
"# 	c #BFF5B4",
"$ 	c #BDF3B2",
"% 	c #BBF0B1",
"& 	c #B9EDAE",
"* 	c #B6E9AC",
"= 	c #B4E6AA",
"- 	c #B1E2A8",
"; 	c #AFDEA5",
"> 	c #ACDAA3",
", 	c #A9D5A0",
"' 	c #A6D19D",
") 	c #A2CC9A",
"! 	c #9FC697",
"~ 	c #C1F8B6",
"{ 	c #BFF6B4",
"] 	c #BBF0B0",
"^ 	c #ACDAA2",
"/ 	c #A5D09D",
"( 	c #9FC797",
"_ 	c #9BC194",
": 	c #BBEFB0",
"< 	c #BAEFB0",
"[ 	c #BAEEB0",
"} 	c #B7EBAD",
"| 	c #B2E2A8",
"1 	c #AEDEA5",
"2 	c #A7D39F",
"3 	c #A2CB9A",
"4 	c #9CC294",
"5 	c #97BC91",
"6 	c #BAEEAF",
"7 	c #B0DDA7",
"8 	c #A5CD9D",
"9 	c #A3CB9B",
"0 	c #ADDCA4",
"a 	c #ACD9A2",
"b 	c #9EC397",
"c 	c #99BC92",
"d 	c #9CC194",
"e 	c #A0C898",
"f 	c #98BC91",
"g 	c #94B78E",
"h 	c #B9ECAF",
"i 	c #C0F6B5",
"j 	c #6B8367",
"k 	c #0B0B0B",
"l 	c #0F100E",
"m 	c #91B889",
"n 	c #A9D3A1",
"o 	c #222521",
"p 	c #42513F",
"q 	c #A1C999",
"r 	c #95B78E",
"s 	c #91B18A",
"t 	c #B9ECAE",
"u 	c #BEF3B4",
"v 	c #637A5F",
"w 	c #000000",
"x 	c #87AC7F",
"y 	c #161715",
"z 	c #303D2E",
"A 	c #9CC295",
"B 	c #95B88E",
"C 	c #90B18A",
"D 	c #8CAB87",
"E 	c #BBEFB1",
"F 	c #647A5F",
"G 	c #020302",
"H 	c #809E7A",
"I 	c #9DBF96",
"J 	c #161816",
"K 	c #323E30",
"L 	c #92B28B",
"M 	c #8DAB87",
"N 	c #89A584",
"O 	c #B8EAAE",
"P 	c #63785E",
"Q 	c #010101",
"R 	c #0E0F0E",
"S 	c #101010",
"T 	c #020202",
"U 	c #313C2E",
"V 	c #96B68F",
"W 	c #8EAC88",
"X 	c #8AA584",
"Y 	c #869F80",
"Z 	c #B1E2A7",
"` 	c #B5E6AC",
" .	c #61765D",
"..	c #010201",
"+.	c #2F3A2D",
"@.	c #92B18C",
"#.	c #89A685",
"$.	c #869F81",
"%.	c #82997D",
"&.	c #B2E1A8",
"*.	c #60745C",
"=.	c #030302",
"-.	c #617A5C",
";.	c #758F70",
">.	c #141613",
",.	c #2E382C",
"'.	c #8EAB88",
").	c #86A081",
"!.	c #81997D",
"~.	c #7D937A",
"{.	c #AFDCA6",
"].	c #5E715A",
"^.	c #000100",
"/.	c #7D9B77",
"(.	c #9CBE96",
"_.	c #171916",
":.	c #2D362B",
"<.	c #8AA484",
"[.	c #839A7E",
"}.	c #7E937A",
"|.	c #798D76",
"1.	c #ACD7A3",
"2.	c #5A6D56",
"3.	c #759070",
"4.	c #93B28D",
"5.	c #121413",
"6.	c #293127",
"7.	c #859E81",
"8.	c #7F947B",
"9.	c #7A8D77",
"0.	c #768673",
"a.	c #A6D09D",
"b.	c #84A47D",
"c.	c #546850",
"d.	c #51644D",
"e.	c #7F9C79",
"f.	c #90AE8A",
"g.	c #596C56",
"h.	c #475544",
"i.	c #566653",
"j.	c #738071",
"k.	c #9BC094",
"l.	c #9ABE93",
"m.	c #96B890",
"n.	c #8FAD88",
"o.	c #8AA684",
"p.	c #8AA585",
"q.	c #879F83",
"r.	c #81977D",
"s.	c #738070",
"t.	c #6F7A6E",
"u.	c #91B18B",
"v.	c #8DAB88",
"w.	c #859F81",
"x.	c #7B8D77",
"y.	c #6F7A6D",
"z.	c #6C736A",
"A.	c #94B68D",
"B.	c #859F80",
"C.	c #728070",
"D.	c #686E68",
". + @ # $ % & * = - ; > , ' ) ! ",
"+ ~ { $ ] & * = - ; ^ , / ) ( _ ",
"@ # $ : < [ } | ; 1 > 2 3 ( 4 5 ",
"# $ % 6 7 8 9 0 a b c d e 4 f g ",
"$ ] h i j k l m n o k p q f r s ",
"] t * u v w w x n y w z A B C D ",
"& * = E F w G H I J w K c L M N ",
"* = - O P w Q R S T w U V W X Y ",
"= Z 1 `  .w Q G ..Q w +.@.#.$.%.",
"- 1 ^ &.*.w =.-.;.>.w ,.'.).!.~.",
"; a , {.].w ^./.(._.w :.<.[.}.|.",
"> , / 1.2.w w 3.4.5.w 6.7.8.9.0.",
", a.3 3 b.c.d.e.f.g.h.i.8.9.0.j.",
"a.3 ! _ k.l.m.n.o.p.q.r.9.0.s.t.",
"3 ! _ f r u.v.o.w.%.}.x.0.s.y.z.",
"! _ f A.C M N B.!.}.9.0.C.y.z.D."};
