/* XPM */
static char * Listbox_xpm[] = {
"16 16 118 2",
"  	c None",
". 	c #59420C",
"+ 	c #594312",
"@ 	c #594418",
"# 	c #59451D",
"$ 	c #5A4621",
"% 	c #5A4726",
"& 	c #5B4929",
"* 	c #5B4A2D",
"= 	c #5B4B31",
"- 	c #5C4C34",
"; 	c #5C4E38",
"> 	c #5C4F3B",
", 	c #5D503E",
"' 	c #5D5141",
") 	c #5E5344",
"! 	c #5E5446",
"~ 	c #594313",
"{ 	c #5A4622",
"] 	c #5A4826",
"^ 	c #5A492A",
"/ 	c #5B4A2E",
"( 	c #5C4C35",
"_ 	c #5E5447",
": 	c #5E5549",
"< 	c #5A4722",
"[ 	c #5B4B30",
"} 	c #5C4D34",
"| 	c #5F574C",
"1 	c #5E5039",
"2 	c #5E523E",
"3 	c #5D5241",
"4 	c #5F564C",
"5 	c #5F584E",
"6 	c #605035",
"7 	c #37322A",
"8 	c #0B0C0C",
"9 	c #11100E",
"0 	c #544938",
"a 	c #5F5342",
"b 	c #5F5950",
"c 	c #62523A",
"d 	c #302B23",
"e 	c #000000",
"f 	c #030301",
"g 	c #504638",
"h 	c #605546",
"i 	c #605950",
"j 	c #605A53",
"k 	c #5B492A",
"l 	c #5B4D34",
"m 	c #62543D",
"n 	c #312D26",
"o 	c #060504",
"p 	c #51473B",
"q 	c #615648",
"r 	c #605A52",
"s 	c #605B55",
"t 	c #625540",
"u 	c #322D27",
"v 	c #52493D",
"w 	c #61574B",
"x 	c #615C56",
"y 	c #635643",
"z 	c #322E28",
"A 	c #524A3E",
"B 	c #61594D",
"C 	c #5F574E",
"D 	c #605B54",
"E 	c #615D58",
"F 	c #635846",
"G 	c #322E29",
"H 	c #070605",
"I 	c #5A5349",
"J 	c #6A6258",
"K 	c #676158",
"L 	c #625C54",
"M 	c #615E5A",
"N 	c #645949",
"O 	c #322E2A",
"P 	c #040404",
"Q 	c #232220",
"R 	c #272624",
"S 	c #262423",
"T 	c #4E4A45",
"U 	c #635F58",
"V 	c #625F5B",
"W 	c #5D5344",
"X 	c #645A4C",
"Y 	c #302D29",
"Z 	c #3B3935",
"` 	c #67625D",
" .	c #625F5D",
"..	c #61584B",
"+.	c #4C453D",
"@.	c #332F29",
"#.	c #34312B",
"$.	c #35312D",
"%.	c #34312E",
"&.	c #33312E",
"*.	c #4E4B47",
"=.	c #63605C",
"-.	c #62605D",
";.	c #62615E",
">.	c #61594F",
",.	c #635C53",
"'.	c #645E55",
").	c #645F58",
"!.	c #645F5A",
"~.	c #65615B",
"{.	c #615E5B",
"].	c #62605E",
"^.	c #626160",
"/.	c #615C57",
"(.	c #625F5C",
"_.	c #62615F",
":.	c #636261",
"<.	c #636262",
". + @ # $ % & * = - ; > , ' ) ! ",
"~ @ # { ] ^ / = ( ; > , ' ) _ : ",
"@ # < ] ^ * [ } ; > , ' ) ! : | ",
"# { ] ^ * 1 2 , > , 3 ) _ : 4 5 ",
"$ ] ^ * 6 7 8 9 0 a ) _ : | 5 b ",
"] ^ / [ c d e f g h _ : 4 5 i j ",
"k / = l m n e o p q : | 5 i r s ",
"* = } ; t u e o v w | 5 b j s x ",
"= } ; > y z e o A B C b j D x E ",
"} ; > , F G e H I J K L D x E M ",
"; > , 3 N O e P Q R S T U E M V ",
"> , ' W X Y e e e e e Z ` M V  .",
", 3 ) _ ..+.@.#.$.%.&.*.=.V -.;.",
"' ) _ : 4 >.,.'.).!.~.V {.-.].^.",
") ! : | 5 i j s /.E M (. .]._.:.",
"_ : | 5 b j s /.E M V -.;.^.:.<."};
