/* XPM */
static char * Locale_xpm[] = {
"22 22 338 2",
"  	c None",
". 	c #3CBEE0",
"+ 	c #65B3DD",
"@ 	c #6BBBD9",
"# 	c #6CB7CC",
"$ 	c #62BABF",
"% 	c #55C9B4",
"& 	c #3FB6A0",
"* 	c #2994A9",
"= 	c #1A78C5",
"- 	c #7CC7E0",
"; 	c #96CFE3",
"> 	c #A3DACD",
", 	c #98D0D7",
"' 	c #89D0AE",
") 	c #7ADD64",
"! 	c #5BD346",
"~ 	c #3BB467",
"{ 	c #1C7DCF",
"] 	c #1278C3",
"^ 	c #108ACD",
"/ 	c #5ACEDD",
"( 	c #82D8BC",
"_ 	c #B3E5D3",
": 	c #D5F1E6",
"< 	c #DDF7DF",
"[ 	c #C5F2F0",
"} 	c #AAE0EC",
"| 	c #91E39A",
"1 	c #70CAA5",
"2 	c #4DA6CD",
"3 	c #2891D7",
"4 	c #118DD1",
"5 	c #099FB2",
"6 	c #12A69A",
"7 	c #109FCA",
"8 	c #48C5C0",
"9 	c #67CE8E",
"0 	c #A2E396",
"a 	c #DDF6DB",
"b 	c #F6FEFE",
"c 	c #F8FEFC",
"d 	c #E5FBFB",
"e 	c #C2ECF7",
"f 	c #A3DCE3",
"g 	c #80C4F8",
"h 	c #5AB3EB",
"i 	c #35A8DE",
"j 	c #17B6F0",
"k 	c #10BE7F",
"l 	c #0CB60A",
"m 	c #14AE5D",
"n 	c #4ABB4A",
"o 	c #69CD61",
"p 	c #B0EAAF",
"q 	c #EBFBEF",
"r 	c #FFFFFF",
"s 	c #FFFFFB",
"t 	c #EFFBFA",
"u 	c #CCEDFC",
"v 	c #A9E0FD",
"w 	c #8AD2F5",
"x 	c #63BEED",
"y 	c #3BB3EA",
"z 	c #1FC5DC",
"A 	c #17CB66",
"B 	c #08B605",
"C 	c #0BA700",
"D 	c #30B80C",
"E 	c #3EAB5C",
"F 	c #4FC158",
"G 	c #73D764",
"H 	c #A7ECA6",
"I 	c #DCFADC",
"J 	c #F7FFF3",
"K 	c #F8FEF8",
"L 	c #E5F6FC",
"M 	c #C6ECFD",
"N 	c #A8E3FB",
"O 	c #89D5F8",
"P 	c #62C1F2",
"Q 	c #38B7F9",
"R 	c #22C8B0",
"S 	c #16C314",
"T 	c #07A000",
"U 	c #128F00",
"V 	c #27A207",
"W 	c #27A513",
"X 	c #3293AC",
"Y 	c #52C85F",
"Z 	c #72DA54",
"` 	c #A1EB8B",
" .	c #D3F8B6",
"..	c #E3F9DF",
"+.	c #DBF3F9",
"@.	c #CBEEFE",
"#.	c #B4E8FE",
"$.	c #9CE2FD",
"%.	c #7ED4FA",
"&.	c #58C2F8",
"*.	c #35BDEC",
"=.	c #26CE89",
"-.	c #13AF65",
";.	c #0A8267",
">.	c #197925",
",.	c #168207",
"'.	c #219118",
").	c #1E8CAB",
"!.	c #3EC337",
"~.	c #57D545",
"{.	c #7EE668",
"].	c #B8F194",
"^.	c #B9EBE3",
"/.	c #AEE6FF",
"(.	c #A9E5FE",
"_.	c #9CE2FF",
":.	c #87DEFE",
"<.	c #6ACFFC",
"[.	c #46C0F9",
"}.	c #2CC5ED",
"|.	c #20DA71",
"1.	c #13C32F",
"2.	c #0B9DAA",
"3.	c #0A89B8",
"4.	c #147825",
"5.	c #218D0D",
"6.	c #2273BF",
"7.	c #1F72C2",
"8.	c #1282AB",
"9.	c #28B63B",
"0.	c #3ACC2F",
"a.	c #64DA67",
"b.	c #7DD5C2",
"c.	c #80D4FA",
"d.	c #87D9FD",
"e.	c #86DBFE",
"f.	c #7CD9FF",
"g.	c #69D5FE",
"h.	c #4EC7FB",
"i.	c #2FBEFF",
"j.	c #31D4C5",
"k.	c #49E225",
"l.	c #23C900",
"m.	c #1BB31B",
"n.	c #19A331",
"o.	c #1C8E0B",
"p.	c #168808",
"q.	c #198A13",
"r.	c #2B78BF",
"s.	c #2776BF",
"t.	c #076DBC",
"u.	c #179D6E",
"v.	c #29C04F",
"w.	c #38B6DC",
"x.	c #47B8ED",
"y.	c #57C4F5",
"z.	c #60CBF9",
"A.	c #61CFFC",
"B.	c #58CDFD",
"C.	c #47CAFD",
"D.	c #30BCFB",
"E.	c #22BEF3",
"F.	c #4BE080",
"G.	c #78DA00",
"H.	c #5EC301",
"I.	c #4CB300",
"J.	c #53AD00",
"K.	c #33A700",
"L.	c #18980B",
"M.	c #237B60",
"N.	c #317BBF",
"O.	c #2D78BE",
"P.	c #0263BC",
"Q.	c #0E7F9D",
"R.	c #26B180",
"S.	c #23A9D3",
"T.	c #26A4E9",
"U.	c #32B7F1",
"V.	c #38BFF9",
"W.	c #37C1FA",
"X.	c #32C2F9",
"Y.	c #27BFF8",
"Z.	c #19B5F7",
"`.	c #16BEEB",
" +	c #4DE070",
".+	c #62CF00",
"++	c #24AD00",
"@+	c #1B9B00",
"#+	c #369B00",
"$+	c #1C9900",
"%+	c #178730",
"&+	c #19529C",
"*+	c #307FC2",
"=+	c #2D7DC2",
"-+	c #0B65B6",
";+	c #0167B9",
">+	c #0788C3",
",+	c #0D93D0",
"'+	c #159ED0",
")+	c #28BCB1",
"!+	c #2BBDC8",
"~+	c #1CB0EF",
"{+	c #14ACF5",
"]+	c #11ADF2",
"^+	c #0BA3EE",
"/+	c #06AAEF",
"(+	c #0BC4A8",
"_+	c #0EB023",
":+	c #199422",
"<+	c #1E7E0A",
"[+	c #0F7B00",
"}+	c #017400",
"|+	c #126754",
"1+	c #1445A1",
"2+	c #2072BC",
"3+	c #005CB2",
"4+	c #016FBF",
"5+	c #007CDC",
"6+	c #15AB72",
"7+	c #47DD00",
"8+	c #5BE80C",
"9+	c #3FC886",
"0+	c #13A6DB",
"a+	c #049DEC",
"b+	c #0495E2",
"c+	c #018FDB",
"d+	c #0094D6",
"e+	c #0198D4",
"f+	c #0493CE",
"g+	c #056C49",
"h+	c #096500",
"i+	c #036B00",
"j+	c #18588B",
"k+	c #3983C3",
"l+	c #0062B8",
"m+	c #0070D3",
"n+	c #1BA450",
"o+	c #39CC00",
"p+	c #36D400",
"q+	c #6EDD00",
"r+	c #55C954",
"s+	c #19A5A8",
"t+	c #0081D5",
"u+	c #0176CA",
"v+	c #0069BF",
"w+	c #0066B9",
"x+	c #0072CB",
"y+	c #056461",
"z+	c #075600",
"A+	c #0A6212",
"B+	c #1B5299",
"C+	c #377EC2",
"D+	c #2070BB",
"E+	c #005AB2",
"F+	c #0069C9",
"G+	c #0E8A75",
"H+	c #22AC08",
"I+	c #23BD00",
"J+	c #32C200",
"K+	c #4AD301",
"L+	c #26B06A",
"M+	c #0072C5",
"N+	c #005CB5",
"O+	c #0052AA",
"P+	c #0049A1",
"Q+	c #0048AF",
"R+	c #044E53",
"S+	c #055000",
"T+	c #17605A",
"U+	c #123899",
"V+	c #3F7EC1",
"W+	c #0F60B3",
"X+	c #005AB3",
"Y+	c #016FBD",
"Z+	c #0A7C42",
"`+	c #159900",
" @	c #0DB400",
".@	c #09A71E",
"+@	c #017EAD",
"@@	c #005CAF",
"#@	c #00479F",
"$@	c #004198",
"%@	c #003B92",
"&@	c #00359B",
"*@	c #00314F",
"=@	c #10532E",
"-@	c #1A5094",
";@	c #3773BA",
">@	c #0D56A9",
",@	c #0050B7",
"'@	c #00575A",
")@	c #057F00",
"!@	c #0B960D",
"~@	c #026780",
"{@	c #004FA7",
"]@	c #003E94",
"^@	c #00378D",
"/@	c #00358A",
"(@	c #002F87",
"_@	c #002485",
":@	c #0B3B87",
"<@	c #194F9C",
"[@	c #2E5FB0",
"}@	c #154DAE",
"|@	c #004243",
"1@	c #00580D",
"2@	c #014C5E",
"3@	c #003993",
"4@	c #003283",
"5@	c #002C79",
"6@	c #002978",
"7@	c #002479",
"8@	c #022480",
"9@	c #11409D",
"0@	c #184FAB",
"a@	c #1C4498",
"b@	c #1F4C77",
"c@	c #113B6B",
"d@	c #04277B",
"e@	c #01216B",
"f@	c #001F65",
"g@	c #021F68",
"h@	c #07287A",
"i@	c #123F96",
"j@	c #1950A8",
"k@	c #15489B",
"l@	c #0F346E",
"m@	c #112F7A",
"n@	c #122F85",
"o@	c #13318A",
"p@	c #13368E",
"q@	c #163E94",
"r@	c #144295",
"s@	c #113E8D",
"t@	c #0F3E82",
"u@	c #092D61",
"v@	c #0B2E65",
"w@	c #0B326A",
"                      .                     ",
"              + @ # $ % & * =               ",
"            - ; > , ' ) ! ~ { ] ^           ",
"        / ( _ : < [ } | 1 2 3 4 5 6 7       ",
"      8 9 0 a b c d e f g h i j k l m       ",
"      n o p q r s t u v w x y z A B C D     ",
"    E F G H I J K L M N O P Q R S T U V W   ",
"    X Y Z `  ...+.@.#.$.%.&.*.=.-.;.>.,.'.  ",
"    ).!.~.{.].^./.(._.:.<.[.}.|.1.2.3.4.5.  ",
"6.7.8.9.0.a.b.c.d.e.f.g.h.i.j.k.l.m.n.o.p.q.",
"r.s.t.u.v.w.x.y.z.A.B.C.D.E.F.G.H.I.J.K.L.M.",
"N.O.P.Q.R.S.T.U.V.W.X.Y.Z.`. +.+++@+#+$+%+&+",
"*+=+-+;+>+,+'+)+!+~+{+]+^+/+(+_+:+<+[+}+|+1+",
"    2+3+4+5+6+7+8+9+0+a+b+c+d+e+f+g+h+i+j+  ",
"    k+3+l+m+n+o+p+q+r+s+t+u+v+w+x+y+z+A+B+  ",
"    C+D+E+F+G+H+I+J+K+L+M+N+O+P+Q+R+S+T+U+  ",
"      V+W+X+Y+Z+`+ @.@+@@@#@$@%@&@*@=@-@    ",
"        ;@>@,@'@)@!@~@{@]@^@/@(@_@:@<@      ",
"          [@}@|@1@2@3@4@5@6@7@8@9@0@        ",
"            a@b@c@d@e@f@g@h@i@j@k@          ",
"              l@m@n@o@p@q@r@s@t@            ",
"                    u@v@w@                  "};
