/* XPM */
static char * Menu_xpm[] = {
"16 16 157 2",
"  	c None",
". 	c #A50C0C",
"+ 	c #A31212",
"@ 	c #A21818",
"# 	c #A11D1D",
"$ 	c #A02121",
"% 	c #9E2526",
"& 	c #9C2A2A",
"* 	c #9B2D2D",
"= 	c #993131",
"- 	c #973434",
"; 	c #953838",
"> 	c #933B3B",
", 	c #913E3E",
"' 	c #8F4141",
") 	c #8D4444",
"! 	c #8A4646",
"~ 	c #A31313",
"{ 	c #A02221",
"] 	c #9E2626",
"^ 	c #9B2E2E",
"/ 	c #973435",
"( 	c #8C4444",
"_ 	c #884949",
": 	c #9F2222",
"< 	c #9F2525",
"[ 	c #9F2828",
"} 	c #9D2D2D",
"| 	c #9B3131",
"1 	c #973535",
"2 	c #953A3A",
"3 	c #933E3E",
"4 	c #914141",
"5 	c #8E4444",
"6 	c #8A4647",
"7 	c #854C4C",
"8 	c #A02222",
"9 	c #983131",
"0 	c #903838",
"a 	c #8F3B3B",
"b 	c #963838",
"c 	c #943C3C",
"d 	c #8D4646",
"e 	c #874848",
"f 	c #854A4A",
"g 	c #864949",
"h 	c #834E4E",
"i 	c #A52C2C",
"j 	c #612C2C",
"k 	c #0B0C0C",
"l 	c #0B0B0B",
"m 	c #130C0C",
"n 	c #843434",
"o 	c #954747",
"p 	c #251E1E",
"q 	c #392121",
"r 	c #8A4E4E",
"s 	c #805050",
"t 	c #A33030",
"u 	c #5A2929",
"v 	c #000000",
"w 	c #622929",
"x 	c #844747",
"y 	c #020505",
"z 	c #2A1717",
"A 	c #875050",
"B 	c #815051",
"C 	c #7E5353",
"D 	c #A23434",
"E 	c #5A2B2B",
"F 	c #0A0707",
"G 	c #3F1D1D",
"H 	c #623B3B",
"I 	c #000202",
"J 	c #0C0A0A",
"K 	c #2C1A1A",
"L 	c #845252",
"M 	c #7B5454",
"N 	c #A03737",
"O 	c #592D2D",
"P 	c #251414",
"Q 	c #020202",
"R 	c #1D1111",
"S 	c #302323",
"T 	c #0D0909",
"U 	c #1D1717",
"V 	c #2A1A1A",
"W 	c #825555",
"X 	c #7C5555",
"Y 	c #795656",
"Z 	c #9D3B3B",
"` 	c #582E2E",
" .	c #3C1D1D",
"..	c #180E0E",
"+.	c #030404",
"@.	c #040505",
"#.	c #261717",
"$.	c #261C1C",
"%.	c #2A1B1B",
"&.	c #7F5757",
"*.	c #795757",
"=.	c #765858",
"-.	c #9B3E3E",
";.	c #573030",
">.	c #472323",
",.	c #372020",
"'.	c #442A2A",
").	c #2C2121",
"!.	c #291C1C",
"~.	c #7C5959",
"{.	c #775959",
"].	c #745A5A",
"^.	c #994141",
"/.	c #563131",
"(.	c #472424",
"_.	c #5A3434",
":.	c #010000",
"<.	c #603D3D",
"[.	c #2C2222",
"}.	c #281C1C",
"|.	c #7A5A5A",
"1.	c #715B5B",
"2.	c #974545",
"3.	c #533131",
"4.	c #402121",
"5.	c #774646",
"6.	c #0A0505",
"7.	c #754E4E",
"8.	c #271E1E",
"9.	c #251B1B",
"0.	c #775C5C",
"a.	c #725C5C",
"b.	c #6F5D5D",
"c.	c #8F4545",
"d.	c #763D3D",
"e.	c #492626",
"f.	c #613636",
"g.	c #854F4F",
"h.	c #4F3131",
"i.	c #4C3131",
"j.	c #583F3F",
"k.	c #3F2E2E",
"l.	c #4D3B3B",
"m.	c #6D5E5E",
"n.	c #8A4A4A",
"o.	c #8B4E4E",
"p.	c #815050",
"q.	c #835555",
"r.	c #785D5D",
"s.	c #745E5E",
"t.	c #6C5E5E",
"u.	c #6A5F5F",
"v.	c #7E5252",
"w.	c #7B5555",
"x.	c #715C5C",
"y.	c #686161",
"z.	c #666262",
". + @ # $ % & * = - ; > , ' ) ! ",
"~ @ # { ] & ^ = / ; > , ' ( ! _ ",
"@ # : < [ } | 1 ; 2 3 4 5 6 _ 7 ",
"# 8 < 9 0 a a b c d e f g _ 7 h ",
"$ ] i j k l m n o p l l q r h s ",
"] & t u v v v w x y v v z A B C ",
"& ^ D E v F v G H I J v K L C M ",
"^ = N O v P Q R S T U v V W X Y ",
"= / Z ` v  ...+.@.#.$.v %.&.*.=.",
"- ; -.;.v >.,.v v '.).v !.~.{.].",
"; > ^./.v (._.v :.<.[.v }.|.].1.",
"> , 2.3.v 4.5.v 6.7.8.v 9.0.a.b.",
", ' c.d.e.f.g.h.i.M j.k.l.a.b.m.",
"' ( ! n.o.g.p.q.&.Y |.r.s.b.t.u.",
"( ! _ 7 h s v.w.Y =.].x.b.t.u.y.",
"! _ 7 h s C w.*.=.].1.b.t.u.y.z."};
