/* XPM */
static char * MLE_xpm[] = {
"16 16 194 2",
"  	c None",
". 	c #0CA4A5",
"+ 	c #12A3A4",
"@ 	c #18A1A2",
"# 	c #1DA0A1",
"$ 	c #219F9F",
"% 	c #269D9E",
"& 	c #299C9C",
"* 	c #2D9A9B",
"= 	c #319899",
"- 	c #349797",
"; 	c #389595",
"> 	c #3B9393",
", 	c #3E9091",
"' 	c #418E8F",
") 	c #448C8C",
"! 	c #468A8A",
"~ 	c #13A3A3",
"{ 	c #229FA0",
"] 	c #2A9C9D",
"^ 	c #498788",
"/ 	c #1CA1A2",
"( 	c #20A2A3",
"_ 	c #24A0A1",
": 	c #299E9F",
"< 	c #2E9A9B",
"[ 	c #349899",
"} 	c #379798",
"| 	c #3B9595",
"1 	c #3E9293",
"2 	c #448E8E",
"3 	c #468C8C",
"4 	c #498889",
"5 	c #4C8585",
"6 	c #1CA1A1",
"7 	c #289C9D",
"8 	c #329293",
"9 	c #359192",
"0 	c #369090",
"a 	c #329899",
"b 	c #349798",
"c 	c #409192",
"d 	c #438A8A",
"e 	c #468889",
"f 	c #448888",
"g 	c #448D8D",
"h 	c #4D8585",
"i 	c #4E8181",
"j 	c #4D8182",
"k 	c #4E8383",
"l 	c #22A5A6",
"m 	c #2C7778",
"n 	c #0D0B0B",
"o 	c #0B0B0B",
"p 	c #0A0D0D",
"q 	c #297677",
"r 	c #40A0A1",
"s 	c #273838",
"t 	c #172A2A",
"u 	c #4B8B8C",
"v 	c #202727",
"w 	c #284141",
"x 	c #538686",
"y 	c #27A5A5",
"z 	c #2B7273",
"A 	c #000000",
"B 	c #1B4C4C",
"C 	c #459596",
"D 	c #0E0F0F",
"E 	c #0C1A1A",
"F 	c #4C8686",
"G 	c #151C1C",
"H 	c #1F3232",
"I 	c #568384",
"J 	c #2BA2A4",
"K 	c #2E7273",
"L 	c #060A0A",
"M 	c #0F2A2A",
"N 	c #3E7474",
"O 	c #050101",
"P 	c #0B0E0E",
"Q 	c #0E1C1C",
"R 	c #4E8484",
"S 	c #171D1D",
"T 	c #213333",
"U 	c #588181",
"V 	c #2FA1A2",
"W 	c #307172",
"X 	c #102121",
"Y 	c #070A0A",
"Z 	c #070E0F",
"` 	c #283C3C",
" .	c #030606",
"..	c #1A2424",
"+.	c #0F1B1C",
"@.	c #518282",
"#.	c #223232",
"$.	c #5A7E7E",
"%.	c #339FA0",
"&.	c #327070",
"*.	c #153132",
"=.	c #152727",
"-.	c #010101",
";.	c #070707",
">.	c #0E1B1B",
",.	c #223233",
"'.	c #0F1B1B",
").	c #537F80",
"!.	c #181D1D",
"~.	c #233131",
"{.	c #5C7B7B",
"].	c #369D9E",
"^.	c #346F6F",
"/.	c #173637",
"(.	c #274B4C",
"_.	c #1E3636",
":.	c #2A3E3E",
"<.	c #101B1A",
"[.	c #557D7D",
"}.	c #181C1C",
"|.	c #243030",
"1.	c #5E7979",
"2.	c #3A9B9C",
"3.	c #366D6E",
"4.	c #163333",
"5.	c #386D6D",
"6.	c #010000",
"7.	c #305454",
"8.	c #2D4141",
"9.	c #101A1A",
"0.	c #577B7B",
"a.	c #242F2F",
"b.	c #5F7677",
"c.	c #3D9999",
"d.	c #376B6B",
"e.	c #142B2C",
"f.	c #468586",
"g.	c #080B0B",
"h.	c #426E6E",
"i.	c #2C3D3D",
"j.	c #0F1717",
"k.	c #587878",
"l.	c #161919",
"m.	c #232C2C",
"n.	c #617474",
"o.	c #3F9293",
"p.	c #3C8282",
"q.	c #254E4E",
"r.	c #2E5B5B",
"s.	c #4B8A8B",
"t.	c #335C5C",
"u.	c #2A4949",
"v.	c #4D7B7C",
"w.	c #426464",
"x.	c #2C4242",
"y.	c #344A4A",
"z.	c #577475",
"A.	c #3D4F4F",
"B.	c #2F3B3B",
"C.	c #414D4D",
"D.	c #606E6E",
"E.	c #418E8E",
"F.	c #498F90",
"G.	c #4B8B8B",
"H.	c #508787",
"I.	c #538585",
"J.	c #537E7E",
"K.	c #567E7E",
"L.	c #597D7E",
"M.	c #5B7A7A",
"N.	c #5A7474",
"O.	c #5E7575",
"P.	c #607373",
"Q.	c #606F6F",
"R.	c #5F6A6A",
"S.	c #4E8283",
"T.	c #508080",
"U.	c #527D7E",
"V.	c #557B7B",
"W.	c #567879",
"X.	c #587676",
"Y.	c #5A7374",
"Z.	c #5B7171",
"`.	c #5D6F6F",
" +	c #5E6D6D",
".+	c #606A6A",
"++	c #616868",
"@+	c #46898A",
"#+	c #498787",
"$+	c #537D7E",
"%+	c #577879",
"&+	c #5D6E6F",
"*+	c #5E6C6C",
"=+	c #626666",
". + @ # $ % & * = - ; > , ' ) ! ",
"~ @ # { % ] * = - ; > , ' ) ! ^ ",
"@ / ( _ : < = [ } | 1 ' 2 3 4 5 ",
"6 7 8 9 0 a b c d e f g h i j k ",
"l m n o p q r s o o t u v o w x ",
"y z A A A B C D A A E F G A H I ",
"J K A L A M N O P A Q R S A T U ",
"V W A X Y Z `  ...A +.@.S A #.$.",
"%.&.A *.=.-.;.>.,.A '.).!.A ~.{.",
"].^.A /.(.A A _.:.A <.[.}.A |.1.",
"2.3.A 4.5.6.A 7.8.A 9.0.}.A a.b.",
"c.d.A e.f.g.A h.i.A j.k.l.A m.n.",
"o.p.q.r.s.t.u.v.w.x.y.z.A.B.C.D.",
"E.2 F.G.5 H.I.J.K.L.M.N.O.P.Q.R.",
") ! ^ 5 S.T.U.V.W.X.Y.Z.`. +.+++",
"@+#+5 S.T.$+V.%+X.Y.Z.&+*+.+++=+"};
