/* XPM */
static char * NotebookPage_xpm[] = {
"16 16 209 2",
"  	c None",
". 	c #E0990C",
"+ 	c #DE9812",
"@ 	c #DC9718",
"# 	c #DA961D",
"$ 	c #D89521",
"% 	c #D59325",
"& 	c #D29229",
"* 	c #CF912D",
"= 	c #CC8F31",
"- 	c #C98D34",
"; 	c #C68B38",
"> 	c #C38A3B",
", 	c #BF893E",
"' 	c #BB8741",
") 	c #B78544",
"! 	c #B28346",
"~ 	c #DE9813",
"{ 	c #D89522",
"] 	c #D59326",
"^ 	c #D2922A",
"/ 	c #CF912E",
"( 	c #C68C38",
"_ 	c #C28A3B",
": 	c #BF883E",
"< 	c #B28246",
"[ 	c #AD8049",
"} 	c #DD9717",
"| 	c #DF981B",
"1 	c #DD9720",
"2 	c #D79426",
"3 	c #D0912D",
"4 	c #D19130",
"5 	c #CD9034",
"6 	c #B38347",
"7 	c #AE8049",
"8 	c #AA7E4C",
"9 	c #D59521",
"0 	c #C28C2F",
"a 	c #BF8A31",
"b 	c #D0912C",
"c 	c #D2922D",
"d 	c #C98E35",
"e 	c #B6863E",
"f 	c #B6853E",
"g 	c #BB8641",
"h 	c #AE8149",
"i 	c #AA7F4C",
"j 	c #A57D4E",
"k 	c #B07E28",
"l 	c #0C0D12",
"m 	c #0B0B0B",
"n 	c #593F16",
"o 	c #DD9A33",
"p 	c #AD7E39",
"q 	c #0C0E11",
"r 	c #1D160E",
"s 	c #B07E39",
"t 	c #BF8942",
"u 	c #B98543",
"v 	c #B48347",
"w 	c #B08149",
"x 	c #AC804B",
"y 	c #A67D4E",
"z 	c #A07A50",
"A 	c #AB7A29",
"B 	c #000004",
"C 	c #000000",
"D 	c #010100",
"E 	c #9D6E28",
"F 	c #B2823C",
"G 	c #0A0601",
"H 	c #A67739",
"I 	c #B8884B",
"J 	c #AE834D",
"K 	c #B0844D",
"L 	c #A98253",
"M 	c #9B7953",
"N 	c #A57F55",
"O 	c #9E7A53",
"P 	c #AA7A2C",
"Q 	c #000206",
"R 	c #281C0B",
"S 	c #A1773B",
"T 	c #040507",
"U 	c #0D0903",
"V 	c #AA7C40",
"W 	c #594834",
"X 	c #1A1816",
"Y 	c #43392D",
"Z 	c #221F1B",
"` 	c #0D0D0D",
" .	c #3C3126",
"..	c #947452",
"+.	c #A8792F",
"@.	c #000106",
"#.	c #0E0A02",
"$.	c #090602",
"%.	c #4B3921",
"&.	c #0F0D0A",
"*.	c #0C0803",
"=.	c #A87B44",
"-.	c #433626",
";.	c #070504",
">.	c #2A1F13",
",.	c #010000",
"'.	c #544332",
").	c #A57831",
"!.	c #000005",
"~.	c #1F1508",
"{.	c #543B18",
"].	c #080707",
"^.	c #070706",
"/.	c #0E0A04",
"(.	c #A47946",
"_.	c #453829",
":.	c #1F170E",
"<.	c #997753",
"[.	c #231E18",
"}.	c #282019",
"|.	c #A37634",
"1.	c #171005",
"2.	c #AB7A37",
"3.	c #22190C",
"4.	c #0F0B05",
"5.	c #A07748",
"6.	c #433729",
"7.	c #201910",
"8.	c #9F7E5B",
"9.	c #29241F",
"0.	c #1F1A14",
"a.	c #A07537",
"b.	c #130C05",
"c.	c #B6833F",
"d.	c #886232",
"e.	c #0E0A06",
"f.	c #9B754A",
"g.	c #43372A",
"h.	c #14100C",
"i.	c #746250",
"j.	c #131211",
"k.	c #2F2720",
"l.	c #9D7338",
"m.	c #000002",
"n.	c #0E0903",
"o.	c #A7793E",
"p.	c #BF8C4C",
"q.	c #402F1B",
"r.	c #0A0704",
"s.	c #96734C",
"t.	c #41362B",
"u.	c #070604",
"v.	c #030304",
"w.	c #080705",
"x.	c #594D42",
"y.	c #B4813B",
"z.	c #6E4E25",
"A.	c #6A4B26",
"B.	c #A87B42",
"C.	c #B4854C",
"D.	c #9D7546",
"E.	c #5E462B",
"F.	c #5B452C",
"G.	c #987651",
"H.	c #3E342A",
"I.	c #1D1711",
"J.	c #584839",
"K.	c #3C3229",
"L.	c #55493E",
"M.	c #796A5E",
"N.	c #BC8741",
"O.	c #BE8A46",
"P.	c #B98749",
"Q.	c #A97E4B",
"R.	c #A87E4F",
"S.	c #A78053",
"T.	c #A27D55",
"U.	c #9F7D5A",
"V.	c #383028",
"W.	c #18140F",
"X.	c #86705D",
"Y.	c #847160",
"Z.	c #7D6E61",
"`.	c #756960",
" +	c #B68544",
".+	c #A57C4E",
"++	c #A07B50",
"@+	c #9C7953",
"#+	c #977755",
"$+	c #957758",
"%+	c #6E5945",
"&+	c #4C3F32",
"*+	c #534539",
"=+	c #7B6A5B",
"-+	c #7A6C5F",
";+	c #746960",
">+	c #6F6760",
",+	c #A97E4C",
"'+	c #9B7853",
")+	c #977655",
"!+	c #927456",
"~+	c #8D7258",
"{+	c #8B735C",
"]+	c #88735F",
"^+	c #827060",
"/+	c #796B5E",
"(+	c #74695F",
"_+	c #6F6761",
":+	c #6A6662",
". + @ # $ % & * = - ; > , ' ) ! ",
"~ @ # { ] ^ / = - ( _ : ' ) < [ ",
"} | 1 2 ^ 3 4 5 ( _ : ' ) 6 7 8 ",
"9 0 a b c d e f _ : g ) 6 h i j ",
"k l m n o p q r s t u v w x y z ",
"A B C D E F B G H I J K L M N O ",
"P Q C C R S T U V W X Y Z `  ...",
"+.@.#.$.C %.&.*.=.-.C ;.>.,.C '.",
").!.~.{.C ].^./.(._.C :.<.[.C }.",
"|.B 1.2.3.C C 4.5.6.C 7.8.9.C 0.",
"a.B b.c.d.C C e.f.g.C h.i.j.C k.",
"l.m.n.o.p.q.C r.s.t.C u.v.C w.x.",
"y.z.A.B.C.D.E.F.G.H.C I.J.K.L.M.",
"N.O.P.h Q.R.S.T.U.V.C W.X.Y.Z.`.",
" +6 h i .+++@+#+$+%+&+*+=+-+;+>+",
"< 7 ,+.+z '+)+!+~+{+]+^+/+(+_+:+"};
