/* XPM */
static char * Notebook_xpm[] = {
"16 16 161 2",
"  	c None",
". 	c #E0840C",
"+ 	c #DE8312",
"@ 	c #DC8318",
"# 	c #DA821D",
"$ 	c #D88121",
"% 	c #D58025",
"& 	c #D28029",
"* 	c #D07F2D",
"= 	c #CC7E31",
"- 	c #C97D34",
"; 	c #C67B38",
"> 	c #C37A3B",
", 	c #BF793E",
"' 	c #BB7841",
") 	c #B77744",
"! 	c #B27646",
"~ 	c #DE8313",
"{ 	c #D88122",
"] 	c #D58026",
"^ 	c #CF7F2E",
"/ 	c #C97C34",
"( 	c #C27B3B",
"_ 	c #AD7449",
": 	c #D78122",
"< 	c #D58029",
"[ 	c #D4802C",
"} 	c #D17F31",
"| 	c #CA7D35",
"1 	c #C57B38",
"2 	c #C47B3A",
"3 	c #C27B3E",
"4 	c #BD7941",
"5 	c #B67744",
"6 	c #B27546",
"7 	c #AE7449",
"8 	c #A9734C",
"9 	c #D38029",
"0 	c #C67D35",
"a 	c #B9793C",
"b 	c #B7773B",
"c 	c #C87D39",
"d 	c #B77943",
"e 	c #AA7549",
"f 	c #AE7446",
"g 	c #B47646",
"h 	c #AA734C",
"i 	c #A5724E",
"j 	c #D27F2A",
"k 	c #DB8530",
"l 	c #714E2C",
"m 	c #0B0B0C",
"n 	c #0E0C0A",
"o 	c #89562A",
"p 	c #D38644",
"q 	c #715136",
"r 	c #452F1E",
"s 	c #B4784B",
"t 	c #AA744C",
"u 	c #A07150",
"v 	c #D07E2E",
"w 	c #D88535",
"x 	c #694727",
"y 	c #000000",
"z 	c #1B120A",
"A 	c #BE7A42",
"B 	c #6D4D33",
"C 	c #332114",
"D 	c #AE764D",
"E 	c #A6724E",
"F 	c #9B6F52",
"G 	c #D2802A",
"H 	c #CF7E2E",
"I 	c #CC7D31",
"J 	c #D58438",
"K 	c #69482A",
"L 	c #5C3C23",
"M 	c #735238",
"N 	c #342317",
"O 	c #A9744F",
"P 	c #A17151",
"Q 	c #9C6F53",
"R 	c #976E54",
"S 	c #C97C35",
"T 	c #D1833C",
"U 	c #67472B",
"V 	c #140D06",
"W 	c #090604",
"X 	c #4A3728",
"Y 	c #322317",
"Z 	c #A47352",
"` 	c #9C7053",
" .	c #926D56",
"..	c #CD7E31",
"+.	c #CD813F",
"@.	c #65472C",
"#.	c #402917",
"$.	c #2E1E11",
"%.	c #0D0C0C",
"&.	c #312218",
"*.	c #9F7254",
"=.	c #986F55",
"-.	c #8D6C58",
";.	c #C97D35",
">.	c #C27A3B",
",.	c #C98042",
"'.	c #64462E",
").	c #472E1B",
"!.	c #8E5F3B",
"~.	c #030201",
"{.	c #302219",
"].	c #9B7056",
"^.	c #936E57",
"/.	c #886A5A",
"(.	c #C57F45",
"_.	c #62462F",
":.	c #3D2819",
"<.	c #BA7E52",
"[.	c #473121",
"}.	c #2E2119",
"|.	c #966F58",
"1.	c #8E6C58",
"2.	c #886B5A",
"3.	c #83695B",
"4.	c #C17E48",
"5.	c #5E432F",
"6.	c #382518",
"7.	c #AF7952",
"8.	c #986A4C",
"9.	c #130E0A",
"0.	c #291F18",
"a.	c #906E5A",
"b.	c #896B5A",
"c.	c #7E685D",
"d.	c #B67848",
"e.	c #91613E",
"f.	c #5C3D28",
"g.	c #704C34",
"h.	c #A27150",
"i.	c #A27456",
"j.	c #785743",
"k.	c #4E3A2D",
"l.	c #5D4639",
"m.	c #846A5C",
"n.	c #79675E",
"o.	c #B37647",
"p.	c #AD754D",
"q.	c #AC7651",
"r.	c #A57353",
"s.	c #967059",
"t.	c #93705B",
"u.	c #8C6D5C",
"v.	c #746660",
"w.	c #A17150",
"x.	c #976E55",
"y.	c #836A5C",
"z.	c #74675F",
"A.	c #6F6561",
"B.	c #A07051",
"C.	c #9B6F53",
"D.	c #6A6462",
". + @ # $ % & * = - ; > , ' ) ! ",
"~ @ # { ] & ^ = / ; ( , ' ) ! _ ",
"@ # : ] < [ } | 1 2 3 4 5 6 7 8 ",
"# { ] 9 0 a b c > d e f g 7 h i ",
"$ ] j k l m n o p q m r s t i u ",
"] j v w x y y z A B y C D E u F ",
"G H I J K y y y L M y N O P Q R ",
"* = S T U y V y W X y Y Z ` R  .",
"..S ; +.@.y #.$.y %.y &.*.=. .-.",
";.; >.,.'.y ).!.~.y y {.].^.-./.",
"; > , (._.y :.<.[.y y }.|.1.2.3.",
">., ' 4.5.y 6.7.8.9.y 0.a.b.3.c.",
", ' ) d.e.f.g.h.i.j.k.l.2.m.c.n.",
"' ) o._ p.q.r.F R s.t.u.3.c.n.v.",
"5 o.7 8 i w.Q x. .-.2.y.c.n.z.A.",
"6 7 8 i B.C.x. .-./.3.c.n.v.A.D."};
