/* XPM */
static char * Padding_xpm[] = {
"16 16 97 2",
"  	c None",
". 	c #FCFCFC",
"+ 	c #FAFAFA",
"@ 	c #F8F8F8",
"# 	c #F6F6F6",
"$ 	c #F3F3F3",
"% 	c #F0F0F0",
"& 	c #EDEDED",
"* 	c #E9E9E9",
"= 	c #E6E6E6",
"- 	c #E2E2E2",
"; 	c #DEDEDE",
"> 	c #DADADA",
", 	c #D5D5D5",
"' 	c #D0D0D0",
") 	c #CCCCCC",
"! 	c #C6C6C6",
"~ 	c #FBFBFB",
"{ 	c #F5F5F5",
"] 	c #ECECEC",
"^ 	c #CBCBCB",
"/ 	c #C7C7C7",
"( 	c #C1C1C1",
"_ 	c #EFEFEF",
": 	c #EEEEEE",
"< 	c #EBEBEB",
"[ 	c #E7E7E7",
"} 	c #DDDDDD",
"| 	c #D6D6D6",
"1 	c #BCBCBC",
"2 	c #E3E3E3",
"3 	c #CDCDCD",
"4 	c #CACACA",
"5 	c #C4C4C4",
"6 	c #D8D8D8",
"7 	c #CFCFCF",
"8 	c #B7B7B7",
"9 	c #F2F2F2",
"0 	c #B1B1B1",
"a 	c #0B0B0B",
"b 	c #070707",
"c 	c #181818",
"d 	c #525252",
"e 	c #BEBEBE",
"f 	c #C5C5C5",
"g 	c #ABABAB",
"h 	c #000000",
"i 	c #111111",
"j 	c #121212",
"k 	c #505050",
"l 	c #A9A9A9",
"m 	c #7C7C7C",
"n 	c #303030",
"o 	c #1A1A1A",
"p 	c #B3B3B3",
"q 	c #A5A5A5",
"r 	c #444444",
"s 	c #646464",
"t 	c #0F0F0F",
"u 	c #2B2B2B",
"v 	c #ADADAD",
"w 	c #9F9F9F",
"x 	c #A3A3A3",
"y 	c #787878",
"z 	c #AFAFAF",
"A 	c #A6A6A6",
"B 	c #999999",
"C 	c #A0A0A0",
"D 	c #474747",
"E 	c #727272",
"F 	c #919191",
"G 	c #939393",
"H 	c #D9D9D9",
"I 	c #9C9C9C",
"J 	c #6F6F6F",
"K 	c #C8C8C8",
"L 	c #B8B8B8",
"M 	c #B0B0B0",
"N 	c #8D8D8D",
"O 	c #D4D4D4",
"P 	c #979797",
"Q 	c #656565",
"R 	c #BBBBBB",
"S 	c #868686",
"T 	c #C9C9C9",
"U 	c #B4B4B4",
"V 	c #6D6D6D",
"W 	c #636363",
"X 	c #898989",
"Y 	c #808080",
"Z 	c #AEAEAE",
"` 	c #7A7A7A",
" .	c #B6B6B6",
"..	c #747474",
"+.	c #8C8C8C",
"@.	c #737373",
"#.	c #6E6E6E",
". + @ # $ % & * = - ; > , ' ) ! ",
"~ @ { $ % ] * = - ; > , ' ^ / ( ",
"@ { $ _ : _ < [ - } | ' ^ / ( 1 ",
"# $ % : 2 3 4 / 5 4 6 7 ! ( 1 8 ",
"$ % ] 9 0 a a b b c d e f 1 8 0 ",
"% ] * _ g h h i j h h k f 8 0 g ",
"] * = < l h h m 4 n h o 0 p g q ",
"* = - [ q h h r s t h u v v q w ",
"= - ; - x h h h h h c y z A w B ",
"- ; > } C h h D E E F v A w B G ",
"; > , H I h h J K L M A w B G N ",
"> , ' O P h h Q R g q w B G N S ",
", ' ^ T U V W X z q w B G N S Y ",
"' ^ / ( e e L Z q w B G N S Y ` ",
"^ ! ( 1  .0 g A w B G N S Y ` ..",
"! ( 1 8 0 g q w B G +.S Y ` @.#."};
