/* XPM */
static char * Ranged_xpm[] = {
"16 16 191 2",
"  	c None",
". 	c #FBB3CC",
"+ 	c #F9B2CB",
"@ 	c #F7B0C9",
"# 	c #F4AEC8",
"$ 	c #F1ADC5",
"% 	c #EFABC3",
"& 	c #EBA9C1",
"* 	c #E8A7BE",
"= 	c #E5A5BB",
"- 	c #E1A3B9",
"; 	c #DDA1B6",
"> 	c #D99EB3",
", 	c #D49CB0",
"' 	c #D099AC",
") 	c #CB96A9",
"! 	c #C693A5",
"~ 	c #F9B1CB",
"{ 	c #F4AEC7",
"] 	c #EEABC3",
"^ 	c #D99EB2",
"/ 	c #D49BAF",
"( 	c #CF99AC",
"_ 	c #C091A1",
": 	c #F8B0CA",
"< 	c #FAB2CC",
"[ 	c #F7B0CA",
"} 	c #F1ACC5",
"| 	c #EDAAC2",
"1 	c #E6A6BD",
"2 	c #E0A3B9",
"3 	c #DCA0B6",
"4 	c #D89EB3",
"5 	c #C191A1",
"6 	c #BB8E9D",
"7 	c #EEACC4",
"8 	c #D79FB3",
"9 	c #D49EB1",
"0 	c #D29CAF",
"a 	c #CF9BAD",
"b 	c #CF9AAD",
"c 	c #DFA4B9",
"d 	c #E6A7BD",
"e 	c #D89EB2",
"f 	c #C694A5",
"g 	c #B68B9A",
"h 	c #C390A2",
"i 	c #0B0C0C",
"j 	c #0C0B0B",
"k 	c #070807",
"l 	c #030505",
"m 	c #0C0C0C",
"n 	c #2E2628",
"o 	c #9B7482",
"p 	c #DCA1B6",
"q 	c #CF98AC",
"r 	c #C995A7",
"s 	c #C493A4",
"t 	c #BD8F9F",
"u 	c #B08795",
"v 	c #BE8C9E",
"w 	c #000000",
"x 	c #1C1316",
"y 	c #2C1F24",
"z 	c #080506",
"A 	c #0B080A",
"B 	c #B9899A",
"C 	c #CC9BAC",
"D 	c #B68E9C",
"E 	c #AC8793",
"F 	c #AF8996",
"G 	c #B78E9C",
"H 	c #AC8693",
"I 	c #BC8B9D",
"J 	c #000101",
"K 	c #7C5A66",
"L 	c #EEAFC5",
"M 	c #634D55",
"N 	c #936C7A",
"O 	c #BB91A0",
"P 	c #43393C",
"Q 	c #101010",
"R 	c #050606",
"S 	c #161515",
"T 	c #4C3E43",
"U 	c #A17F8A",
"V 	c #BA8A9B",
"W 	c #000201",
"X 	c #2D2528",
"Y 	c #4F4146",
"Z 	c #151213",
"` 	c #0D090B",
" .	c #A97E8D",
"..	c #634F56",
"+.	c #291F22",
"@.	c #4C3C42",
"#.	c #050504",
"$.	c #B78899",
"%.	c #0F0B0C",
"&.	c #7A5A65",
"*.	c #C391A2",
"=.	c #5D4D53",
"-.	c #3A3335",
";.	c #352E31",
">.	c #080707",
",.	c #4A3B41",
"'.	c #B48697",
").	c #5F454E",
"!.	c #3F2F34",
"~.	c #0A0708",
"{.	c #A87E8D",
"].	c #C899A9",
"^.	c #56494D",
"/.	c #010202",
"(.	c #090607",
"_.	c #3D3034",
":.	c #111010",
"<.	c #483A3F",
"[.	c #B18594",
"}.	c #000100",
"|.	c #7D5C67",
"1.	c #5D464E",
"2.	c #B98F9E",
"3.	c #0E0D0D",
"4.	c #352B2E",
"5.	c #846E75",
"6.	c #0D0D0D",
"7.	c #45393D",
"8.	c #AD8291",
"9.	c #6D505A",
"0.	c #CB98AA",
"a.	c #1A1416",
"b.	c #120E0F",
"c.	c #A9828F",
"d.	c #3E3035",
"e.	c #121011",
"f.	c #3B3335",
"g.	c #C893A5",
"h.	c #6E505B",
"i.	c #96707D",
"j.	c #8E6C77",
"k.	c #634B53",
"l.	c #5E4850",
"m.	c #977581",
"n.	c #A07E8A",
"o.	c #57454C",
"p.	c #44363B",
"q.	c #635157",
"r.	c #65545A",
"s.	c #473C40",
"t.	c #584C50",
"u.	c #D19AAD",
"v.	c #D39CAF",
"w.	c #CD99AB",
"x.	c #BA8D9D",
"y.	c #BB8F9E",
"z.	c #B78D9C",
"A.	c #B18A97",
"B.	c #A5828E",
"C.	c #A1808C",
"D.	c #9F808B",
"E.	c #977C85",
"F.	c #907980",
"G.	c #8B767D",
"H.	c #857479",
"I.	c #7C6F73",
"J.	c #BB8E9E",
"K.	c #B68A99",
"L.	c #B08896",
"M.	c #AB8592",
"N.	c #9F7E8A",
"O.	c #997B85",
"P.	c #937881",
"Q.	c #8D767D",
"R.	c #867279",
"S.	c #806F75",
"T.	c #7A6C71",
"U.	c #746A6D",
"V.	c #C090A1",
"W.	c #BB8D9D",
"X.	c #AA8491",
"Y.	c #A4818D",
"Z.	c #9E7E89",
"`.	c #987B85",
" +	c #927881",
".+	c #8C757D",
"++	c #867278",
"@+	c #7F6F75",
"#+	c #796C70",
"$+	c #736A6C",
"%+	c #6E6769",
". + @ # $ % & * = - ; > , ' ) ! ",
"~ @ { $ ] & * = - ; ^ / ( ) ! _ ",
": < [ { } | 1 2 3 4 / ( ) ! 5 6 ",
"7 8 9 0 a b c d e / ( ) f _ 6 g ",
"h i j k l m n o p q ) r s t g u ",
"v w w x y z w A B , C D E F G H ",
"I J w K L M w w N O P Q R S T U ",
"V W w X Y Z w `  ...z +.@.#.w ..",
"$.W w w w w %.&.*.u =.-.;.>.w ,.",
"'.W w ).!.w ~.{.].^./.(._.:.w <.",
"[.}.w |.o w w 1.2.3.w 4.5.6.w 7.",
"8.w w 9.0.a.w b.c.d.w w e.j w f.",
"g.&.h.i.0.j.k.l.m.n.o.p.q.r.s.t.",
"u.v.w.s x.y.z.A.B.C.D.E.F.G.H.I.",
") f 5 J.K.L.M.B.N.O.P.Q.R.S.T.U.",
"! V.W.K.u X.Y.Z.`. +.+++@+#+$+%+"};
