/* XPM */
static char * Refresh_xpm[] = {
"24 24 134 2",
"  	c None",
". 	c #6FAC19",
"+ 	c #6FAE1B",
"@ 	c #73B11B",
"# 	c #77B71C",
"$ 	c #6CAA1A",
"% 	c #63A019",
"& 	c #619C19",
"* 	c #65A119",
"= 	c #6CAA1B",
"- 	c #76B61C",
"; 	c #7EBF1D",
"> 	c #6BA81A",
", 	c #65A219",
"' 	c #5E9919",
") 	c #609B19",
"! 	c #629D19",
"~ 	c #6EAC1A",
"{ 	c #7EBF1B",
"] 	c #6D9D1B",
"^ 	c #68A51A",
"/ 	c #5C9718",
"( 	c #5D9818",
"_ 	c #5F9A19",
": 	c #609C19",
"< 	c #69A61A",
"[ 	c #7EBE1C",
"} 	c #67A619",
"| 	c #67A41A",
"1 	c #66A319",
"2 	c #5D9918",
"3 	c #6CA91A",
"4 	c #81C51D",
"5 	c #4D8315",
"6 	c #558F17",
"7 	c #6FAF1B",
"8 	c #65A31A",
"9 	c #75B41C",
"0 	c #548D17",
"a 	c #5A9419",
"b 	c #4C7F15",
"c 	c #74A917",
"d 	c #629F19",
"e 	c #67A31A",
"f 	c #82C41E",
"g 	c #4C8116",
"h 	c #5B9518",
"i 	c #5F9B19",
"j 	c #579119",
"k 	c #5E9918",
"l 	c #79BA1D",
"m 	c #467C16",
"n 	c #558E17",
"o 	c #5B9618",
"p 	c #548D18",
"q 	c #6FAE1A",
"r 	c #71AF1B",
"s 	c #407614",
"t 	c #4F8717",
"u 	c #579017",
"v 	c #589218",
"w 	c #5A9518",
"x 	c #598A19",
"y 	c #6DAB1A",
"z 	c #83C51E",
"A 	c #3A7016",
"B 	c #487F15",
"C 	c #528B17",
"D 	c #538C17",
"E 	c #568F17",
"F 	c #5A9418",
"G 	c #539614",
"H 	c #6DA91B",
"I 	c #5C9719",
"J 	c #599318",
"K 	c #81C21C",
"L 	c #376913",
"M 	c #396D14",
"N 	c #3E7115",
"O 	c #427615",
"P 	c #508917",
"Q 	c #508916",
"R 	c #548F18",
"S 	c #578F17",
"T 	c #5D931F",
"U 	c #579118",
"V 	c #70AE1B",
"W 	c #377C13",
"X 	c #528A17",
"Y 	c #63A713",
"Z 	c #538D17",
"` 	c #78B81C",
" .	c #457415",
"..	c #518917",
"+.	c #538B17",
"@.	c #528C16",
"#.	c #68A41A",
"$.	c #5F9919",
"%.	c #619D19",
"&.	c #3E7414",
"*.	c #4B8316",
"=.	c #579117",
"-.	c #5C9818",
";.	c #5D9819",
">.	c #548E17",
",.	c #4D8516",
"'.	c #74B41B",
").	c #447A15",
"!.	c #4F8817",
"~.	c #4A8216",
"{.	c #457B15",
"].	c #477E16",
"^.	c #487F16",
"/.	c #4A8116",
"(.	c #66A31A",
"_.	c #70A914",
":.	c #487E16",
"<.	c #437815",
"[.	c #467C15",
"}.	c #4B8216",
"|.	c #4C8416",
"1.	c #7EC21C",
"2.	c #569018",
"3.	c #407515",
"4.	c #417715",
"5.	c #437915",
"6.	c #64A019",
"7.	c #74B41C",
"8.	c #4C8415",
"9.	c #528B16",
"0.	c #579018",
"a.	c #4D8616",
"b.	c #5C9619",
"c.	c #639F1A",
"                                                ",
"                                                ",
"                        . + @ #                 ",
"                        $ % & * = - ;           ",
"                        > , ' ) ) ! ~ {         ",
"                        ] ^ / ( _ & : < [       ",
"                          } | 1 & 2 : ) 3 4     ",
"            5 6                 7 8 ( : ) 9     ",
"            0 a b                 c d ( _ e f   ",
"          g h i j                   + ( k _ l   ",
"        m n o ( 2 p                 q _ / / r   ",
"      s t u v w 2 / x               y _ h o y z ",
"    A B C D E v w k F G             H I J F $ K ",
"  L M N O P 0 u 6 Q R S T           3 U v v V   ",
"        W g C 0 U X               Y ' Z u J `   ",
"           ...D 6 v +.@.        #.$...Z 0 %.;   ",
"          &.*.X 0 =.F J v J -.;.>.,...C D '.    ",
"            ).!.D E J ( ~.{.].^./.,.t t (._.    ",
"              :...n v U <.).[.^./.}.|.i 1.      ",
"                ~.X v 2.3.4.5.{.]...6.7.        ",
"                  8.9.0.}./.a.Z ' >             ",
"                        b.i c.                  ",
"                                                ",
"                                                "};
