/* XPM */
static char * Render_xpm[] = {
"16 16 150 2",
"  	c None",
". 	c #FCEA0C",
"+ 	c #FAE912",
"@ 	c #F8E618",
"# 	c #F5E41D",
"$ 	c #F2E221",
"% 	c #EFDF26",
"& 	c #ECDC2A",
"* 	c #E9D92D",
"= 	c #E6D631",
"- 	c #E2D234",
"; 	c #DECF38",
"> 	c #DACB3B",
", 	c #D5C73E",
"' 	c #D0C341",
") 	c #CBBE44",
"! 	c #C6BA46",
"~ 	c #FAE813",
"{ 	c #F2E122",
"] 	c #E5D531",
"^ 	c #D9CB3B",
"/ 	c #C1B549",
"( 	c #EFDE26",
"_ 	c #EFDE29",
": 	c #EEDE2D",
"< 	c #EBDA31",
"[ 	c #E7D734",
"} 	c #E3D337",
"| 	c #DDCE3B",
"1 	c #D0C241",
"2 	c #C6BA47",
"3 	c #BBB04C",
"4 	c #EDDD29",
"5 	c #DCCD35",
"6 	c #CDC03B",
"7 	c #CABE3D",
"8 	c #C7BB40",
"9 	c #C3B743",
"0 	c #D6C847",
"a 	c #D0C345",
"b 	c #C6B946",
"c 	c #BCB04C",
"d 	c #B6AB4E",
"e 	c #F2E121",
"f 	c #ECDC29",
"g 	c #F5E530",
"h 	c #756F2B",
"i 	c #0B0B0B",
"j 	c #050509",
"k 	c #121210",
"l 	c #454224",
"m 	c #B3A943",
"n 	c #C6B94A",
"o 	c #BCB04B",
"p 	c #B1A650",
"q 	c #E9D92E",
"r 	c #F2E235",
"s 	c #6C6626",
"t 	c #000000",
"u 	c #262409",
"v 	c #201E07",
"w 	c #3E3A18",
"x 	c #C3B74E",
"y 	c #B7AC4E",
"z 	c #B1A750",
"A 	c #ABA153",
"B 	c #EDDE39",
"C 	c #6D6628",
"D 	c #090802",
"E 	c #B1A538",
"F 	c #C8BC4C",
"G 	c #222115",
"H 	c #161508",
"I 	c #AEA349",
"J 	c #B3A951",
"K 	c #ABA152",
"L 	c #A59C54",
"M 	c #EADA3C",
"N 	c #6B6529",
"O 	c #040302",
"P 	c #413E24",
"Q 	c #3D3B25",
"R 	c #050505",
"S 	c #333014",
"T 	c #AEA44E",
"U 	c #ADA353",
"V 	c #9F9756",
"W 	c #E5D631",
"X 	c #E6D63F",
"Y 	c #69632A",
"Z 	c #010100",
"` 	c #282510",
" .	c #8D853E",
"..	c #AFA554",
"+.	c #999158",
"@.	c #E1D243",
"#.	c #67612C",
"$.	c #0A0903",
"%.	c #6E6729",
"&.	c #100F07",
"*.	c #302E15",
"=.	c #B3A856",
"-.	c #A69D55",
";.	c #928C5A",
">.	c #DCCD46",
",.	c #655F2D",
"'.	c #060602",
").	c #AAA044",
"!.	c #4B4721",
"~.	c #020201",
"{.	c #847D43",
"].	c #A59D59",
"^.	c #938C5A",
"/.	c #8C865B",
"(.	c #D7C949",
"_.	c #605B2C",
":.	c #9F9543",
"<.	c #89823F",
"[.	c #3D3A21",
"}.	c #A1995C",
"|.	c #8D865B",
"1.	c #86815D",
"2.	c #CBBE48",
"3.	c #9E953D",
"4.	c #676128",
"5.	c #665F2A",
"6.	c #A09648",
"7.	c #676134",
"8.	c #56512E",
"9.	c #5C5734",
"0.	c #908958",
"a.	c #8E875C",
"b.	c #807C5E",
"c.	c #C0B44D",
"d.	c #BDB251",
"e.	c #B8AD53",
"f.	c #ACA253",
"g.	c #9F975B",
"h.	c #97905C",
"i.	c #7A7660",
"j.	c #C6B947",
"k.	c #A59C55",
"l.	c #9F9757",
"m.	c #8D875C",
"n.	c #807B5E",
"o.	c #7A765F",
"p.	c #747161",
"q.	c #B0A650",
"r.	c #737161",
"s.	c #6E6C62",
". + @ # $ % & * = - ; > , ' ) ! ",
"~ @ # { % & * ] - ; ^ , ' ) ! / ",
"@ # { ( _ : < [ } | , 1 ) 2 / 3 ",
"# { % 4 5 6 7 8 9 ! 0 a b / c d ",
"e % f g h i i j j k l m n o d p ",
"% & q r s t t u v t t w x y z A ",
"& q = B C t D E F G t H I J K L ",
"* ] - M N t O P Q R t S T U L V ",
"W - ; X Y t Z t t t `  ...L V +.",
"- ; ^ @.#.t $.%.&.t *.=.-.V +.;.",
"; ^ , >.,.t '.).!.t ~.{.].+.^./.",
"^ , ' (._.t Z :.<.t t [.}.^.|.1.",
", ' ) 2.3.4.5.6.U 7.8.9.0.a.1.b.",
"' ) 2 / c.d.e.f.-.].g.h.|.1.b.i.",
") j./ c d p A k.l.+.^.m.1.n.o.p.",
"b / c d q.K k.l.+.^./.1.n.i.r.s."};
