/* XPM */
static char * Text_xpm[] = {
"16 16 80 1",
" 	c None",
".	c #BCBCBC",
"+	c #BABABA",
"@	c #B8B8B8",
"#	c #B7B7B7",
"$	c #B5B5B5",
"%	c #B4B4B4",
"&	c #B1B1B1",
"*	c #AFAFAF",
"=	c #ADADAD",
"-	c #AAAAAA",
";	c #A8A8A8",
">	c #A5A5A5",
",	c #A2A2A2",
"'	c #9F9F9F",
")	c #9C9C9C",
"!	c #999999",
"~	c #B9B9B9",
"{	c #B2B2B2",
"]	c #9D9D9D",
"^	c #969696",
"/	c #B0B0B0",
"(	c #AEAEAE",
"_	c #ABABAB",
":	c #A0A0A0",
"<	c #939393",
"[	c #B3B3B3",
"}	c #9B9B9B",
"|	c #979797",
"1	c #959595",
"2	c #9A9A9A",
"3	c #8F8F8F",
"4	c #282828",
"5	c #090909",
"6	c #0B0B0B",
"7	c #121212",
"8	c #898989",
"9	c #909090",
"0	c #8C8C8C",
"a	c #292929",
"b	c #050505",
"c	c #000000",
"d	c #0C0C0C",
"e	c #7F7F7F",
"f	c #989898",
"g	c #A9A9A9",
"h	c #6F6F6F",
"i	c #040404",
"j	c #515151",
"k	c #7D7D7D",
"l	c #8B8B8B",
"m	c #919191",
"n	c #868686",
"o	c #8E8E8E",
"p	c #616161",
"q	c #858585",
"r	c #828282",
"s	c #A4A4A4",
"t	c #878787",
"u	c #5C5C5C",
"v	c #7E7E7E",
"w	c #A1A1A1",
"x	c #848484",
"y	c #5A5A5A",
"z	c #949494",
"A	c #7B7B7B",
"B	c #585858",
"C	c #777777",
"D	c #010101",
"E	c #545454",
"F	c #8D8D8D",
"G	c #787878",
"H	c #747474",
"I	c #535353",
"J	c #494949",
"K	c #6A6A6A",
"L	c #717171",
"M	c #6E6E6E",
"N	c #6B6B6B",
"O	c #686868",
".+@#$%&*=-;>,')!",
"+~#$%{*=-;>,']!^",
"~#$%&{/(_;>:)!^<",
"#$[&*,]}!|1)2^<3",
"$[&/=45665782<90",
"%&*(-abccbdef908",
"&*=-g<hicjklm08n",
"*=-;>_oicp:m08qr",
"=-;>,sticu|08nrv",
"-;>,:wxbcyz8qreA",
";>,')]rbcB9nreAC",
">,']!2vDcEFreAGH",
",')!^z8IJKqvAGHL",
":)!^<3FolxvAGHLM",
")!^<308nreAGHLMN",
"!^<308qrvACHLMNO"};
