/* XPM */
static char * Tree_xpm[] = {
"16 16 158 2",
"  	c None",
". 	c #28A50C",
"+ 	c #2AA312",
"@ 	c #2DA218",
"# 	c #2FA11D",
"$ 	c #31A021",
"% 	c #349E26",
"& 	c #379C2A",
"* 	c #399B2D",
"= 	c #3B9931",
"- 	c #3E9734",
"; 	c #409538",
"> 	c #43933B",
", 	c #45913E",
"' 	c #478F41",
") 	c #498D44",
"! 	c #4B8A46",
"~ 	c #2CA218",
"{ 	c #32A022",
"] 	c #369C2A",
"^ 	c #498C44",
"/ 	c #4C8A46",
"( 	c #4D8849",
"_ 	c #33A124",
": 	c #369F29",
"< 	c #389D2D",
"[ 	c #3B9C30",
"} 	c #3D9A34",
"| 	c #409738",
"1 	c #4E8849",
"2 	c #50854C",
"3 	c #369D29",
"4 	c #409335",
"5 	c #419138",
"6 	c #438F3B",
"7 	c #458E3D",
"8 	c #488C41",
"9 	c #468C40",
"0 	c #45923E",
"a 	c #4C8A47",
"b 	c #52834E",
"c 	c #34A125",
"d 	c #3C9031",
"e 	c #131313",
"f 	c #0A090A",
"g 	c #0B0B0B",
"h 	c #0A090B",
"i 	c #132112",
"j 	c #458E3F",
"k 	c #4A8F44",
"l 	c #4D8949",
"m 	c #50864C",
"n 	c #51834E",
"o 	c #538050",
"p 	c #379F2A",
"q 	c #3A8F31",
"r 	c #0A1308",
"s 	c #010401",
"t 	c #000000",
"u 	c #010500",
"v 	c #0B190A",
"w 	c #4B8647",
"x 	c #518B4C",
"y 	c #538C4F",
"z 	c #548251",
"A 	c #51824E",
"B 	c #557E53",
"C 	c #399B2E",
"D 	c #3B9831",
"E 	c #34842C",
"F 	c #2E572A",
"G 	c #010201",
"H 	c #2D5D28",
"I 	c #40753C",
"J 	c #232A23",
"K 	c #181E18",
"L 	c #364635",
"M 	c #10110F",
"N 	c #466D43",
"O 	c #578154",
"P 	c #577B54",
"Q 	c #3C9931",
"R 	c #3E9735",
"S 	c #45A13C",
"T 	c #3B6D36",
"U 	c #000100",
"V 	c #3B7337",
"W 	c #54934F",
"X 	c #111511",
"Y 	c #020002",
"Z 	c #436340",
"` 	c #5A8057",
" .	c #587956",
"..	c #459A3D",
"+.	c #3B6837",
"@.	c #3B6E37",
"#.	c #548C4F",
"$.	c #151914",
"%.	c #111C11",
"&.	c #3A5838",
"*.	c #50724E",
"=.	c #5A7B58",
"-.	c #5A7658",
";.	c #489740",
">.	c #3C6739",
",.	c #3D6C39",
"'.	c #558A51",
").	c #293E28",
"!.	c #5D855B",
"~.	c #597A57",
"{.	c #597658",
"].	c #5B745A",
"^.	c #4A9544",
"/.	c #3E663A",
"(.	c #3E6A3B",
"_.	c #578754",
":.	c #151815",
"<.	c #2C3F2A",
"[.	c #5D7F5B",
"}.	c #5D715B",
"|.	c #4C9347",
"1.	c #3E633A",
"2.	c #3F673C",
"3.	c #598556",
"4.	c #121512",
"5.	c #2B3B29",
"6.	c #5E7D5C",
"7.	c #5E6F5D",
"8.	c #4A8C44",
"9.	c #4D8C48",
"0.	c #467A42",
"a.	c #2C4B29",
"b.	c #2B4729",
"c.	c #497146",
"d.	c #578155",
"e.	c #3A5238",
"f.	c #2E402D",
"g.	c #425841",
"h.	c #5D765C",
"i.	c #5F6C5E",
"j.	c #4D8749",
"k.	c #50874C",
"l.	c #548851",
"m.	c #568553",
"n.	c #567F53",
"o.	c #567B54",
"p.	c #5B7D59",
"q.	c #5D7B5B",
"r.	c #5C715B",
"s.	c #5F6D5E",
"t.	c #606A60",
"u.	c #557E52",
"v.	c #577B55",
"w.	c #5D715C",
"x.	c #606A5F",
"y.	c #616861",
"z.	c #587957",
"A.	c #626662",
". + @ # $ % & * = - ; > , ' ) ! ",
"+ ~ # { % ] * = - ; > , ' ^ / ( ",
"@ # $ _ : < [ } | > , ' ) / 1 2 ",
"# $ 3 4 5 6 7 8 9 0 ' ) a 1 2 b ",
"$ c d e f g g h i j k ! l m n o ",
"% p q r s t t u v w x y z A o B ",
"] C D E F t G H I J K L M N O P ",
"* Q R S T t U V W X t Y t Z `  .",
"= - ; ..+.t U @.#.$.t %.&.*.=.-.",
"- ; > ;.>.t U ,.'.$.t ).!.~.{.].",
"; > , ^./.t U (._.:.t <.[.-.].}.",
"> , ' |.1.t t 2.3.4.t 5.6.].}.7.",
", ' 8.9.0.a.b.c.d.e.f.g.h.}.7.i.",
"' 8./ j.k.l.m.n.o.p.q.h.r.7.s.t.",
"^ / 1 2 b o u.v. .-.].w.7.s.x.y.",
"! 1 2 b o u.v.z.-.].}.7.s.t.y.A."};
