/* XPM */
static char * Window_xpm[] = {
"16 16 180 2",
"  	c None",
". 	c #0C28E0",
"+ 	c #122ADE",
"@ 	c #182DDC",
"# 	c #1D2FDA",
"$ 	c #2131D7",
"% 	c #2634D5",
"& 	c #2A36D2",
"* 	c #2D39CF",
"= 	c #313BCC",
"- 	c #343EC9",
"; 	c #3840C6",
"> 	c #3B42C2",
", 	c #3E45BF",
"' 	c #4147BB",
") 	c #4449B7",
"! 	c #464BB2",
"~ 	c #132ADE",
"{ 	c #182CDC",
"] 	c #2231D8",
"^ 	c #2534D5",
"/ 	c #2A37D2",
"( 	c #2E39CF",
"_ 	c #3B43C2",
": 	c #464BB3",
"< 	c #494DAE",
"[ 	c #2131DA",
"} 	c #2433DA",
"| 	c #2936D7",
"1 	c #2E39D0",
"2 	c #343DCC",
"3 	c #3740CA",
"4 	c #3B43C4",
"5 	c #3E45BE",
"6 	c #4047BC",
"7 	c #4449BA",
"8 	c #464CB4",
"9 	c #494EAE",
"0 	c #4C50AA",
"a 	c #2131D9",
"b 	c #2C39CA",
"c 	c #3640BD",
"d 	c #353FBE",
"e 	c #313BCD",
"f 	c #353FCA",
"g 	c #4148B9",
"h 	c #4249B0",
"i 	c #3F46BC",
"j 	c #4046BC",
"k 	c #494EB3",
"l 	c #4D51A4",
"m 	c #4A4EA6",
"n 	c #4B4FAB",
"o 	c #4E52A5",
"p 	c #2131D8",
"q 	c #2735DF",
"r 	c #283092",
"s 	c #0C0C0A",
"t 	c #0B0B14",
"u 	c #2D35B1",
"v 	c #4048C8",
"w 	c #1E1F2A",
"x 	c #0B0B0B",
"y 	c #292D72",
"z 	c #4B51CA",
"A 	c #383B67",
"B 	c #0C0C0B",
"C 	c #2A2C5A",
"D 	c #5154AD",
"E 	c #5053A0",
"F 	c #2B37D8",
"G 	c #2D36B7",
"H 	c #050507",
"I 	c #000000",
"J 	c #242984",
"K 	c #060602",
"L 	c #14163A",
"M 	c #5055C1",
"N 	c #222336",
"O 	c #31336B",
"P 	c #5457A8",
"Q 	c #53559C",
"R 	c #2E39D1",
"S 	c #343FD0",
"T 	c #13152F",
"U 	c #1A1E5A",
"V 	c #3B3F87",
"W 	c #080818",
"X 	c #4A4E9F",
"Y 	c #111114",
"Z 	c #030309",
"` 	c #44478B",
" .	c #5557A0",
"..	c #555797",
"+.	c #313CCC",
"@.	c #3842D5",
"#.	c #222660",
"$.	c #12132F",
"%.	c #292C4E",
"&.	c #020203",
"*.	c #000104",
"=.	c #373962",
"-.	c #030301",
";.	c #121328",
">.	c #51549B",
",.	c #555798",
"'.	c #565892",
").	c #3A43CE",
"!.	c #31368F",
"~.	c #09090C",
"{.	c #0F0F11",
"].	c #090A17",
"^.	c #161627",
"/.	c #16161B",
"(.	c #27284C",
"_.	c #585A9D",
":.	c #575992",
"<.	c #585A8D",
"[.	c #3C43C6",
"}.	c #3D43B1",
"|.	c #0A0A10",
"1.	c #18193A",
"2.	c #2F315F",
"3.	c #000001",
"4.	c #3B3D6C",
"5.	c #5A5C98",
"6.	c #5A5B88",
"7.	c #454BC1",
"8.	c #1A1B36",
"9.	c #262858",
"0.	c #45488B",
"a.	c #020201",
"b.	c #090911",
"c.	c #4D4F83",
"d.	c #5A5C90",
"e.	c #5B5D83",
"f.	c #3B43C3",
"g.	c #4147BA",
"h.	c #484EC1",
"i.	c #2C2E62",
"j.	c #363874",
"k.	c #5356A1",
"l.	c #0C0D12",
"m.	c #18192B",
"n.	c #595A8E",
"o.	c #5A5C89",
"p.	c #5B5C83",
"q.	c #5D5E7E",
"r.	c #444AB7",
"s.	c #484DB5",
"t.	c #42479E",
"u.	c #292C60",
"v.	c #292C5B",
"w.	c #474A90",
"x.	c #5558A1",
"y.	c #3B3D6A",
"z.	c #2D2E4D",
"A.	c #3F4066",
"B.	c #5B5D8B",
"C.	c #5E5F79",
"D.	c #474CB3",
"E.	c #494DAD",
"F.	c #4C51AC",
"G.	c #5155AC",
"H.	c #5356A7",
"I.	c #53569D",
"J.	c #545697",
"K.	c #595B97",
"L.	c #5B5D93",
"M.	c #5C5D8B",
"N.	c #5F6074",
"O.	c #4449B6",
"P.	c #464CB3",
"Q.	c #4C50A9",
"R.	c #5053A1",
"S.	c #61616F",
"T.	c #474BB2",
"U.	c #53559B",
"V.	c #606074",
"W.	c #62626B",
". + @ # $ % & * = - ; > , ' ) ! ",
"~ { # ] ^ / ( = - ; _ , ' ) : < ",
"@ # [ } | 1 = 2 3 4 5 6 7 8 9 0 ",
"# a b c d e f g h i j k l m n o ",
"p q r s t u v w x y z A B C D E ",
"% F G H I J h K I L M N I O P Q ",
"& R S T I U V I I W X Y Z `  ...",
"* +.@.#.I $.%.I &.*.=.-.;.>.,.'.",
"= - ).!.I ~.{.].^.I /.I (._.:.<.",
"- ; [.}.|.I I 1.2.I I 3.4.5.<.6.",
"; _ , 7.8.I I 9.0.a.I b.c.d.6.e.",
"f., g.h.i.I I j.k.l.I m.n.o.p.q.",
", ' r.s.t.u.v.w.x.y.z.A.B.p.q.C.",
"' ) D.E.F.G.H.I.J.K.L.M.p.q.C.N.",
"O.P.9 Q.o R.Q ..'.<.6.e.q.C.N.S.",
"T.< Q.o E U...'.<.6.e.q.C.V.S.W."};
